<svg width="384" height="300" viewBox="0 0 384 300" fill="none" xmlns="http://www.w3.org/2000/svg">
<path d="M215.529 54.056L259.881 102.265C263.108 105.772 266.079 109.505 268.773 113.436L299.612 158.43C301.92 161.797 303.806 165.434 305.23 169.26L351.553 293.743H0.854187L31.156 179.493C35.2583 164.026 43.0124 149.77 53.7671 137.921L129.887 54.056H215.529Z" fill="#F3A13B"/>
<path d="M101.419 159.444C99.5479 155.651 98.5634 151.482 98.5402 147.253C98.517 143.024 99.4558 138.845 101.286 135.031C103.115 131.218 105.788 127.871 109.102 125.243C112.416 122.615 116.284 120.775 120.413 119.863C122.192 119.473 123.815 118.565 125.078 117.253V117.231C127.495 114.703 127.909 112.435 131.339 105.563C131.706 104.819 132.014 104.221 132.193 103.88L160.763 114.959L153.02 138.634C154.612 143.633 154.763 148.98 153.455 154.061C152.146 159.142 149.432 163.751 145.623 167.359C141.814 170.967 137.064 173.428 131.92 174.459C126.776 175.49 121.445 175.05 116.539 173.188C116.305 175.533 115.424 177.766 113.994 179.64C112.565 181.513 110.643 182.952 108.443 183.797C106.243 184.641 103.852 184.858 101.536 184.424C99.2203 183.989 97.0707 182.919 95.3271 181.334C93.5835 179.749 92.3145 177.711 91.6615 175.447C91.0085 173.183 90.9973 170.782 91.6291 168.512C92.2609 166.242 93.5108 164.192 95.2395 162.591C96.9682 160.99 99.1077 159.9 101.419 159.444Z" fill="#1C2628"/>
<path d="M185.481 173.859C177.781 173.859 171.54 167.617 171.54 159.918C171.54 152.218 177.781 145.977 185.481 145.977C193.18 145.977 199.422 152.218 199.422 159.918C199.422 167.617 193.18 173.859 185.481 173.859Z" fill="#1C2628"/>
<path d="M140.642 123.096C140.629 120.644 141.582 118.285 143.295 116.531C145.008 114.776 147.343 113.766 149.795 113.72L150.372 107.442C150.541 105.451 151.101 103.513 152.021 101.738C152.941 99.9643 154.202 98.3891 155.731 97.1031C157.261 95.8172 159.029 94.8457 160.935 94.2444C162.841 93.643 164.846 93.4237 166.837 93.5989L189.966 95.7558C192.993 96.0562 195.779 97.5449 197.711 99.8956C199.643 102.246 200.564 105.267 200.272 108.296L197.709 136.546C197.507 138.918 196.839 141.227 195.743 143.34C194.647 145.454 193.145 147.33 191.322 148.862C189.5 150.394 187.393 151.551 185.123 152.268C182.853 152.984 180.463 153.245 178.092 153.037L177.02 152.934L175.572 168.593L145.02 165.748L146.728 147.202H146.754L148.112 132.292C145.997 131.856 144.098 130.702 142.736 129.026C141.375 127.35 140.635 125.255 140.642 123.096Z" fill="#F45B49"/>
<path d="M150.021 127.563C150.738 127.563 151.44 127.351 152.036 126.952C152.632 126.554 153.097 125.987 153.371 125.325C153.646 124.662 153.718 123.933 153.578 123.23C153.438 122.526 153.092 121.88 152.585 121.373C152.078 120.866 151.432 120.52 150.729 120.381C150.025 120.241 149.296 120.312 148.634 120.587C147.971 120.861 147.405 121.326 147.006 121.922C146.608 122.519 146.395 123.22 146.395 123.937C146.396 124.898 146.778 125.82 147.458 126.5C148.138 127.18 149.06 127.562 150.021 127.563ZM150.021 122.011C150.4 122.011 150.771 122.123 151.087 122.334C151.402 122.545 151.648 122.844 151.793 123.195C151.938 123.545 151.976 123.931 151.902 124.303C151.828 124.675 151.645 125.016 151.377 125.285C151.109 125.553 150.767 125.735 150.395 125.809C150.023 125.883 149.638 125.845 149.287 125.7C148.937 125.555 148.637 125.309 148.427 124.994C148.216 124.679 148.103 124.308 148.103 123.929C148.107 123.422 148.31 122.937 148.669 122.579C149.029 122.222 149.514 122.02 150.021 122.019V122.011Z" fill="#1C2628"/>
<path d="M177.084 152.96L158.893 150.701C158.776 150.686 158.657 150.713 158.559 150.778C158.46 150.843 158.388 150.94 158.355 151.054C158.322 151.167 158.331 151.288 158.379 151.396C158.428 151.503 158.513 151.59 158.619 151.64L176.426 160.148L177.084 152.96Z" fill="#1C2628"/>
<path d="M152.695 125.513C152.895 125.517 153.091 125.45 153.247 125.325C153.403 125.199 153.51 125.022 153.549 124.826C153.746 123.857 153.684 122.853 153.371 121.915C153.057 120.978 152.503 120.139 151.764 119.482C151.05 118.88 150.202 118.457 149.291 118.25C148.379 118.042 147.432 118.056 146.527 118.291C146.309 118.351 146.125 118.496 146.013 118.693C145.902 118.89 145.873 119.123 145.934 119.341C145.995 119.559 146.139 119.744 146.336 119.856C146.533 119.967 146.766 119.995 146.984 119.935C147.613 119.777 148.27 119.769 148.902 119.911C149.534 120.054 150.124 120.343 150.624 120.755C151.138 121.212 151.523 121.797 151.741 122.45C151.958 123.102 152 123.801 151.862 124.475C151.84 124.586 151.839 124.699 151.861 124.81C151.883 124.92 151.926 125.025 151.988 125.119C152.05 125.212 152.131 125.293 152.224 125.355C152.317 125.418 152.422 125.461 152.533 125.483C152.586 125.497 152.64 125.507 152.695 125.513Z" fill="#1C2628"/>
<path d="M194.822 125.932C193.824 125.932 193.015 125.123 193.015 124.125C193.015 123.127 193.824 122.318 194.822 122.318C195.82 122.318 196.629 123.127 196.629 124.125C196.629 125.123 195.82 125.932 194.822 125.932Z" fill="#1C2628"/>
<path d="M175.546 123.698C174.548 123.698 173.739 122.889 173.739 121.891C173.739 120.894 174.548 120.085 175.546 120.085C176.544 120.085 177.353 120.894 177.353 121.891C177.353 122.889 176.544 123.698 175.546 123.698Z" fill="#1C2628"/>
<path d="M186.993 131.331C187.061 131.331 187.128 131.322 187.194 131.305C188.556 130.976 189.966 130.481 190.064 129.34C190.074 128.908 189.913 128.489 189.616 128.174C189.53 128.063 189.432 127.935 189.325 127.769C188.926 127.129 188.724 126.386 188.744 125.633L188.783 117.757C188.783 117.53 188.693 117.313 188.532 117.153C188.372 116.993 188.155 116.903 187.928 116.903C187.702 116.903 187.485 116.993 187.324 117.153C187.164 117.313 187.074 117.53 187.074 117.757L187.036 125.633C187.024 126.703 187.321 127.755 187.89 128.661C188.027 128.871 188.138 129.024 188.236 129.152C187.783 129.373 187.303 129.535 186.809 129.635C186.604 129.682 186.422 129.803 186.301 129.976C186.179 130.148 186.126 130.359 186.151 130.569C186.176 130.779 186.277 130.971 186.436 131.111C186.595 131.25 186.799 131.325 187.01 131.322L186.993 131.331Z" fill="#1C2628"/>
<path d="M184.054 138.852C185.209 138.836 186.346 138.568 187.386 138.066C187.587 137.963 187.739 137.783 187.809 137.567C187.878 137.351 187.859 137.117 187.755 136.915C187.651 136.714 187.472 136.561 187.256 136.492C187.04 136.423 186.806 136.442 186.604 136.546C186.578 136.546 184.609 137.545 182.832 136.973C182.348 136.797 181.904 136.524 181.528 136.171C181.152 135.817 180.852 135.391 180.646 134.918C180.599 134.812 180.532 134.716 180.447 134.636C180.363 134.556 180.263 134.495 180.154 134.455C180.044 134.415 179.928 134.398 179.812 134.405C179.696 134.411 179.583 134.442 179.479 134.494C179.375 134.546 179.283 134.619 179.208 134.708C179.133 134.797 179.077 134.9 179.044 135.011C179.01 135.123 179 135.24 179.013 135.355C179.026 135.471 179.063 135.582 179.121 135.683C179.424 136.362 179.864 136.971 180.413 137.473C180.962 137.975 181.608 138.359 182.311 138.6C182.875 138.775 183.464 138.86 184.054 138.852Z" fill="#1C2628"/>
<path d="M145.877 156.79L176.789 159.642L175.477 173.868L144.565 171.017L145.877 156.79Z" fill="#F3EAD6"/>
<path d="M189.526 96.8407C186.809 96.6272 184.217 98.861 182.692 100.847C180.129 104.196 179.049 108.279 177.075 111.952C173.159 119.213 163.621 120.123 156.672 117.099L130.489 107.331C131.139 105.242 134.496 93.4323 146.502 87.7175C152.057 85.1191 158.254 84.2102 164.321 85.1035L186.357 86.2567C188.921 86.3719 191.417 87.125 193.618 88.4478C197.603 90.9038 201.959 96.136 200.417 107.186C200.066 104.469 198.789 101.956 196.803 100.071C194.816 98.1849 192.24 97.0413 189.509 96.8322L189.526 96.8407Z" fill="#1C2628"/>
<path d="M198.547 170.083C198.547 170.083 208.456 171.471 214.965 191.362C216.575 196.283 218.284 201.152 220.257 205.953L233.613 236.253L223.888 278.063L202.083 263.883L209.365 245.051C213.457 235.228 214.662 224.157 211.574 213.983L198.547 170.083Z" fill="#F45B49"/>
<path d="M113.118 250.903L203.868 261.534C207.939 251.441 208.72 250.514 212.786 240.43C216.113 232.188 216.545 223.061 214.012 214.542L201.314 171.98C201.035 171.034 200.466 170.201 199.687 169.597C198.908 168.993 197.959 168.649 196.974 168.614L116.915 165.568C114.963 200.614 115.049 215.857 113.118 250.903Z" fill="#F3EAD6"/>
<path d="M211.181 138.173C208.345 139.796 206.683 142.76 205.201 145.554C203.485 148.763 201.982 152.082 200.703 155.489C198.143 162.285 196.499 169.392 195.813 176.622C195.139 183.698 195.478 190.833 196.821 197.812C198.096 204.364 200.27 210.708 203.283 216.665C206.295 222.641 210.173 228.14 214.79 232.985C215.359 233.592 215.952 234.187 216.567 234.771C217.754 235.919 215.943 237.73 214.756 236.581C209.778 231.742 205.548 226.189 202.207 220.103C198.845 214.02 196.35 207.498 194.792 200.725C193.175 193.602 192.586 186.283 193.045 178.993C193.515 171.455 195.005 164.015 197.474 156.877C198.722 153.256 200.207 149.722 201.921 146.297C203.463 143.213 205.111 139.912 207.704 137.567C208.366 136.961 209.092 136.43 209.869 135.982C211.304 135.162 212.594 137.374 211.151 138.195L211.181 138.173Z" fill="white"/>
<path d="M146.831 286.576C147.15 276.874 145.268 267.226 141.325 258.356C137.411 249.441 131.565 241.506 124.21 235.125C120.366 231.823 115.958 228.526 110.893 227.522C108.647 227.066 106.318 227.253 104.174 228.061C103.295 228.422 102.455 228.871 101.667 229.402C100.873 229.946 100.136 230.568 99.4673 231.26C96.5159 234.249 94.5383 238.264 93.1288 242.194C91.2495 247.456 90.0109 253.004 89.0114 258.493C86.8909 270.141 86.3522 282.023 87.4097 293.816C87.5407 295.293 87.6973 296.768 87.8795 298.241C87.9649 298.928 87.2303 299.522 86.5982 299.522C86.2607 299.514 85.9392 299.377 85.7005 299.138C85.4618 298.9 85.3244 298.578 85.3168 298.241C83.8273 285.991 84.0343 273.594 85.9319 261.401C86.827 255.49 88.1416 249.649 89.8656 243.924C91.2196 239.473 93.0904 235.087 95.9606 231.396C98.7668 227.779 102.658 225.152 107.301 224.75C112.934 224.268 118.256 227.283 122.6 230.551C130.716 236.697 137.328 244.609 141.936 253.688C146.591 262.747 149.148 272.738 149.419 282.92C149.449 284.137 149.419 285.35 149.393 286.567C149.338 288.212 146.775 288.22 146.831 286.567V286.576Z" fill="white"/>
<path d="M193.771 264.857C194.963 257.921 194.937 250.83 193.694 243.902C192.562 237.594 190.525 231.332 187.168 225.844C185.659 223.34 183.811 221.057 181.675 219.061C180.641 218.111 179.527 217.254 178.343 216.498C177.239 215.784 176.069 215.176 174.85 214.683C172.429 213.737 169.845 213.281 167.247 213.342C164.787 213.371 162.36 213.92 160.127 214.952C157.807 216.03 155.852 217.759 154.497 219.928C152.913 222.512 152.285 225.677 153.216 228.522C153.627 229.764 154.327 230.891 155.258 231.811C156.163 232.699 157.423 233.519 158.756 233.634C159.311 233.674 159.868 233.584 160.382 233.369C160.897 233.155 161.353 232.823 161.716 232.4C162.571 231.473 163.197 230.358 163.544 229.145C165.457 222.845 162.736 215.96 159.495 210.604C156.318 205.444 152.234 200.901 147.441 197.193C142.44 193.32 136.864 190.254 130.916 188.103C124.338 185.733 117.487 184.202 110.525 183.546C108.817 183.375 107.108 183.247 105.4 183.162C105.063 183.153 104.742 183.015 104.503 182.777C104.265 182.538 104.127 182.217 104.119 181.88C104.119 181.541 104.254 181.215 104.494 180.974C104.734 180.734 105.06 180.599 105.4 180.599C112.878 180.923 120.29 182.149 127.474 184.251C134.202 186.228 140.576 189.255 146.361 193.22C151.788 196.959 156.499 201.644 160.268 207.051C164.176 212.748 167.413 219.838 166.589 226.912C166.222 230.077 165.073 233.391 162.318 235.24C159.371 237.205 155.663 235.847 153.37 233.532C152.223 232.341 151.355 230.911 150.825 229.345C150.296 227.779 150.119 226.115 150.307 224.473C150.711 221.103 152.274 217.979 154.728 215.636C158.854 211.668 164.902 210.258 170.476 210.984C176.669 211.792 182.038 215.208 186.04 219.928C190.311 224.981 193.088 231.161 194.869 237.5C196.918 244.801 197.641 252.41 197.004 259.966C196.846 261.841 196.577 263.716 196.278 265.574C196.187 265.902 195.97 266.18 195.675 266.347C195.379 266.514 195.029 266.558 194.702 266.467C194.378 266.371 194.103 266.154 193.936 265.86C193.769 265.566 193.722 265.219 193.805 264.891L193.771 264.857Z" fill="white"/>
<path d="M65.8745 246.956H65.8275L72.3241 231.836L85.9919 199.994C87.9595 195.416 89.9271 190.834 91.8947 186.25C94.577 180.009 96.7638 173.257 102.419 169.003C109.68 163.548 120.657 162.425 128.14 168.059C134.508 172.851 136.255 181.556 136.14 189.133C135.986 197.722 133.15 206.077 129.417 213.722C125.573 221.598 122.412 229.799 118.88 237.824L113.114 250.92L199.601 261.034C202.471 261.367 205.271 262.141 207.905 263.328C211.535 264.971 215.228 266.736 218.984 268.624C221.185 269.729 223.335 270.842 225.434 271.964L220.005 293.747H96.6357C72.3796 293.747 56.354 268.872 65.8745 246.956Z" fill="#F45B49"/>
<path d="M29.2662 228.317H58.3104C59.683 228.316 60.999 227.77 61.9696 226.799C62.9402 225.829 63.4859 224.513 63.4871 223.14V194.07C63.4859 192.698 62.9402 191.382 61.9696 190.411C60.999 189.441 59.683 188.895 58.3104 188.894H29.2662C27.8936 188.895 26.5776 189.441 25.607 190.411C24.6364 191.382 24.0907 192.698 24.0896 194.07V223.14C24.0907 224.513 24.6364 225.829 25.607 226.799C26.5776 227.77 27.8936 228.316 29.2662 228.317ZM58.3104 190.602C59.2299 190.603 60.1113 190.969 60.7615 191.619C61.4117 192.269 61.7775 193.151 61.7786 194.07V223.14C61.7775 224.06 61.4117 224.941 60.7615 225.591C60.1113 226.241 59.2299 226.607 58.3104 226.608H29.2662C28.3468 226.607 27.4652 226.241 26.8151 225.591C26.1649 224.941 25.7992 224.06 25.798 223.14V194.07C25.7992 193.151 26.1649 192.269 26.8151 191.619C27.4652 190.969 28.3468 190.603 29.2662 190.602H58.3104Z" fill="#1C2628"/>
<path d="M50.276 205.423C51.1579 205.423 52.02 205.162 52.7533 204.672C53.4866 204.182 54.0582 203.485 54.3957 202.671C54.7332 201.856 54.8215 200.959 54.6494 200.094C54.4774 199.229 54.0527 198.435 53.429 197.811C52.8054 197.187 52.0109 196.763 51.1459 196.591C50.2809 196.419 49.3843 196.507 48.5695 196.844C47.7547 197.182 47.0583 197.753 46.5684 198.487C46.0784 199.22 45.8169 200.082 45.8169 200.964C45.818 202.146 46.2882 203.28 47.1242 204.116C47.9602 204.952 49.0937 205.422 50.276 205.423ZM50.276 198.213C50.82 198.213 51.3518 198.375 51.8041 198.677C52.2565 198.979 52.6091 199.409 52.8172 199.912C53.0254 200.414 53.0799 200.967 52.9738 201.501C52.8676 202.034 52.6057 202.524 52.221 202.909C51.8363 203.294 51.3462 203.556 50.8126 203.662C50.279 203.768 49.726 203.714 49.2234 203.505C48.7207 203.297 48.2911 202.945 47.9889 202.492C47.6867 202.04 47.5253 201.508 47.5253 200.964C47.5298 200.237 47.8215 199.541 48.3367 199.029C48.852 198.516 49.549 198.227 50.276 198.226V198.213Z" fill="#1C2628"/>
<path d="M37.3217 219.258C38.2045 219.257 39.0675 218.995 39.8012 218.504C40.535 218.014 41.1065 217.316 41.4434 216.5C41.7802 215.684 41.8673 214.786 41.6935 213.921C41.5197 213.055 41.0929 212.26 40.4671 211.638C39.8414 211.015 39.0448 210.592 38.1785 210.422C37.3121 210.253 36.4148 210.344 35.6004 210.685C34.786 211.026 34.0911 211.6 33.6037 212.337C33.1163 213.073 32.8583 213.937 32.8626 214.82C32.8693 215.998 33.342 217.126 34.1774 217.958C35.0128 218.789 36.1431 219.256 37.3217 219.258ZM37.3217 212.048C37.8657 212.048 38.3975 212.209 38.8499 212.511C39.3022 212.814 39.6548 213.243 39.8629 213.746C40.0711 214.248 40.1256 214.801 40.0195 215.335C39.9133 215.869 39.6514 216.359 39.2667 216.743C38.882 217.128 38.3919 217.39 37.8583 217.496C37.3247 217.602 36.7717 217.548 36.2691 217.34C35.7664 217.131 35.3368 216.779 35.0346 216.327C34.7324 215.874 34.571 215.342 34.571 214.798C34.5722 214.069 34.8623 213.37 35.3779 212.855C35.8935 212.339 36.5925 212.049 37.3217 212.048Z" fill="#1C2628"/>
<path d="M52.3175 221.906C52.4685 221.904 52.6162 221.861 52.7446 221.782C52.938 221.665 53.0772 221.476 53.1316 221.257C53.186 221.037 53.1513 220.805 53.0351 220.612L38.0389 195.715C37.9808 195.619 37.9044 195.535 37.814 195.468C37.7235 195.401 37.6208 195.353 37.5117 195.326C37.4027 195.299 37.2894 195.294 37.1783 195.311C37.0672 195.328 36.9605 195.366 36.8643 195.424C36.7681 195.482 36.6843 195.559 36.6176 195.649C36.551 195.74 36.5028 195.842 36.4758 195.951C36.4489 196.06 36.4436 196.174 36.4605 196.285C36.4773 196.396 36.5158 196.503 36.5739 196.599L51.57 221.491C51.6473 221.62 51.757 221.726 51.8882 221.799C52.0195 221.871 52.1675 221.908 52.3175 221.906Z" fill="#1C2628"/>
<path d="M96.1275 242.809C96.1275 240.746 103.44 239.072 112.465 239.072C121.49 239.072 128.802 240.746 128.802 242.809L130.558 261.243C126.466 260.577 120.734 260.534 115.677 263.678C113.874 264.832 111.884 265.663 109.795 266.134C106.28 266.873 100.988 267.048 94.6198 264.349L96.1275 242.809Z" fill="white"/>
<path d="M105.187 267.458C106.795 267.46 108.4 267.297 109.975 266.971C112.157 266.478 114.238 265.611 116.125 264.408C121.037 261.367 126.611 261.47 130.421 262.089L131.514 262.269L129.652 242.766C129.558 239.174 118.385 238.222 112.465 238.222C106.545 238.222 95.3459 239.166 95.2733 242.775L93.7272 264.9L94.291 265.135C97.7286 266.637 101.435 267.428 105.187 267.458ZM126.201 260.026C122.341 259.958 118.538 260.971 115.224 262.952C113.508 264.053 111.613 264.846 109.625 265.297C106.498 265.955 101.548 266.211 95.5296 263.793L96.9818 242.809C96.9818 242.117 101.637 239.926 112.465 239.926C123.292 239.926 127.948 242.117 127.948 242.809V242.89L129.605 260.244C128.476 260.1 127.339 260.028 126.201 260.026Z" fill="#1C2628"/>
<path d="M93.4922 262.836C100.271 265.536 105.909 265.361 109.65 264.622C111.855 264.153 113.968 263.323 115.903 262.166C121.315 259.018 127.393 259.065 131.749 259.727L133.53 277.269C133.758 279.503 133.514 281.76 132.815 283.894C132.116 286.029 130.977 287.992 129.471 289.659C127.966 291.325 126.128 292.658 124.075 293.569C122.023 294.481 119.802 294.952 117.556 294.952H108.403C106.194 294.952 104.008 294.496 101.983 293.613C99.9583 292.73 98.1371 291.439 96.6338 289.82C95.1305 288.202 93.9774 286.29 93.2465 284.205C92.5156 282.121 92.2226 279.908 92.3859 277.704L93.4922 262.836Z" fill="#F3A13B"/>
<path d="M113.763 283.868H113.84C114.066 283.847 114.274 283.738 114.418 283.564C114.563 283.39 114.633 283.166 114.613 282.941L109.296 224.084C109.219 223.19 108.809 222.357 108.147 221.751C107.484 221.146 106.618 220.812 105.721 220.816H93.0694C92.8428 220.816 92.6255 220.906 92.4653 221.067C92.3051 221.227 92.2151 221.444 92.2151 221.671C92.2151 221.897 92.3051 222.115 92.4653 222.275C92.6255 222.435 92.8428 222.525 93.0694 222.525H105.721C106.19 222.524 106.643 222.699 106.99 223.015C107.337 223.331 107.553 223.766 107.596 224.233L112.913 283.09C112.933 283.303 113.03 283.5 113.188 283.644C113.345 283.788 113.55 283.868 113.763 283.868Z" fill="#1C2628"/>
<path d="M112.499 247.281C112.99 247.281 113.481 247.281 113.968 247.255C119.226 247.057 124.392 245.809 129.161 243.586C129.263 243.539 129.354 243.472 129.43 243.389C129.506 243.306 129.565 243.209 129.603 243.104C129.642 242.998 129.659 242.886 129.654 242.774C129.649 242.662 129.623 242.552 129.575 242.45C129.528 242.348 129.461 242.257 129.378 242.181C129.295 242.105 129.198 242.046 129.093 242.008C128.987 241.969 128.875 241.952 128.763 241.957C128.651 241.962 128.541 241.988 128.439 242.036C123.881 244.163 118.943 245.356 113.917 245.547C107.916 245.762 101.948 244.559 96.499 242.036C96.3971 241.988 96.2866 241.96 96.1741 241.955C96.0616 241.95 95.9491 241.967 95.8433 242.006C95.7374 242.044 95.6402 242.103 95.5572 242.18C95.4742 242.256 95.4071 242.348 95.3598 242.45C95.3125 242.552 95.2859 242.663 95.2815 242.775C95.2771 242.888 95.295 243 95.3342 243.106C95.3734 243.211 95.433 243.308 95.5098 243.391C95.5866 243.473 95.6789 243.54 95.7814 243.586C101.022 246.009 106.725 247.27 112.499 247.281Z" fill="#1C2628"/>
<path d="M166.495 168.926C166.713 168.926 166.923 168.843 167.082 168.694C167.241 168.545 167.336 168.34 167.35 168.123L167.854 159.435C167.867 159.209 167.789 158.986 167.638 158.817C167.487 158.647 167.275 158.545 167.048 158.532C166.822 158.519 166.599 158.596 166.43 158.747C166.261 158.898 166.158 159.11 166.145 159.337L165.641 168.02C165.634 168.132 165.649 168.245 165.686 168.351C165.723 168.458 165.78 168.556 165.855 168.64C165.929 168.724 166.02 168.792 166.121 168.842C166.222 168.891 166.332 168.919 166.444 168.926H166.495Z" fill="#1C2628"/>
<path d="M157.833 168.294C158.051 168.294 158.261 168.211 158.42 168.062C158.579 167.913 158.674 167.708 158.687 167.491L159.191 158.803C159.198 158.691 159.182 158.578 159.145 158.472C159.108 158.366 159.051 158.268 158.976 158.185C158.901 158.101 158.811 158.032 158.709 157.984C158.608 157.935 158.499 157.906 158.386 157.9C158.274 157.893 158.162 157.909 158.056 157.946C157.95 157.983 157.852 158.04 157.768 158.115C157.684 158.19 157.616 158.28 157.567 158.382C157.518 158.483 157.489 158.593 157.483 158.705L156.979 167.409C156.972 167.522 156.987 167.634 157.024 167.741C157.061 167.847 157.118 167.945 157.192 168.029C157.267 168.113 157.358 168.182 157.459 168.231C157.56 168.28 157.67 168.308 157.782 168.315L157.833 168.294Z" fill="#1C2628"/>
<path d="M246.307 170.011H336.925C338.511 170.011 340.031 169.381 341.153 168.259C342.274 167.138 342.904 165.617 342.904 164.031V106.19C342.904 104.605 342.274 103.084 341.153 101.962C340.031 100.841 338.511 100.211 336.925 100.211H246.307C244.721 100.211 243.2 100.841 242.079 101.962C240.957 103.084 240.327 104.605 240.327 106.19V164.018C240.326 164.805 240.479 165.583 240.779 166.31C241.079 167.037 241.519 167.698 242.074 168.255C242.63 168.811 243.289 169.253 244.016 169.554C244.742 169.856 245.521 170.011 246.307 170.011ZM336.925 101.906C338.057 101.906 339.144 102.356 339.945 103.157C340.746 103.958 341.196 105.045 341.196 106.178V164.018C341.196 165.151 340.746 166.237 339.945 167.038C339.144 167.839 338.057 168.289 336.925 168.289H246.307C245.174 168.289 244.088 167.839 243.287 167.038C242.486 166.237 242.036 165.151 242.036 164.018V106.19C242.036 105.058 242.486 103.971 243.287 103.17C244.088 102.369 245.174 101.919 246.307 101.919L336.925 101.906Z" fill="#1C2628"/>
<path d="M254.448 143.956H292.829C294.666 143.956 296.156 145.446 296.156 147.284V148.492C296.156 150.33 294.666 151.82 292.829 151.82H254.448C252.61 151.82 251.121 150.33 251.121 148.492V147.284C251.121 145.446 252.61 143.956 254.448 143.956Z" fill="#1C2628"/>
<path d="M253 124.057H294.277C294.503 124.057 294.72 123.967 294.881 123.807C295.041 123.647 295.131 123.429 295.131 123.203C295.131 122.976 295.041 122.759 294.881 122.599C294.72 122.439 294.503 122.349 294.277 122.349H253C252.773 122.349 252.556 122.439 252.396 122.599C252.236 122.759 252.146 122.976 252.146 123.203C252.146 123.429 252.236 123.647 252.396 123.807C252.556 123.967 252.773 124.057 253 124.057Z" fill="#1C2628"/>
<path d="M258.813 133.398H294.264C294.49 133.398 294.708 133.308 294.868 133.148C295.028 132.988 295.118 132.77 295.118 132.544C295.118 132.317 295.028 132.1 294.868 131.94C294.708 131.78 294.49 131.69 294.264 131.69H258.813C258.586 131.69 258.369 131.78 258.209 131.94C258.049 132.1 257.959 132.317 257.959 132.544C257.959 132.77 258.049 132.988 258.209 133.148C258.369 133.308 258.586 133.398 258.813 133.398Z" fill="#1C2628"/>
<path d="M307.929 152.5H328.758C329.268 152.5 329.773 152.391 330.238 152.179C330.703 151.966 331.117 151.657 331.453 151.27C331.79 150.884 332.04 150.429 332.187 149.937C332.335 149.446 332.376 148.928 332.308 148.419L329.405 126.62C329.288 125.756 328.865 124.963 328.212 124.389C327.559 123.815 326.721 123.499 325.855 123.5H311.316C310.463 123.499 307.428 124 306.428 123.5C304.84 124.389 304.383 126.62 304.383 126.62V148.341C304.303 148.856 304.301 149 304.34 150.5C304.383 152.174 304.34 152 304.383 152.5C304.72 152.895 305.957 151.957 306.428 152.174C306.899 152.391 307.411 152.502 307.929 152.5Z" fill="#1C2628"/>
<path d="M156.39 294.755H225.434V279.827H156.39C155.436 279.827 154.521 280.206 153.847 280.881C153.172 281.555 152.793 282.47 152.793 283.424V291.154C152.793 291.627 152.885 292.095 153.066 292.532C153.246 292.969 153.511 293.366 153.845 293.7C154.179 294.035 154.576 294.3 155.012 294.481C155.449 294.662 155.917 294.755 156.39 294.755Z" fill="#F3EAD6"/>
<path d="M217.639 294.755H298.561C300.069 294.77 301.542 294.296 302.759 293.406C303.977 292.515 304.874 291.255 305.318 289.814L325.132 222.636C326.413 218.284 323.043 213.949 318.375 213.949H242.057C240.482 213.93 238.948 214.445 237.703 215.41C236.458 216.375 235.577 217.732 235.202 219.262L217.639 294.755Z" fill="#F3EAD6"/>
<path d="M276.41 271.934C270.218 271.934 265.199 266.914 265.199 260.722C265.199 254.53 270.218 249.51 276.41 249.51C282.603 249.51 287.622 254.53 287.622 260.722C287.622 266.914 282.603 271.934 276.41 271.934Z" fill="#1C2628"/>
<path d="M278.875 252.752C279.066 252.752 279.252 252.687 279.402 252.569C279.552 252.45 279.658 252.285 279.703 252.099L281.044 246.606C281.071 246.497 281.076 246.384 281.059 246.273C281.042 246.162 281.003 246.055 280.945 245.959C280.827 245.765 280.637 245.626 280.417 245.572C280.196 245.518 279.964 245.554 279.77 245.672C279.576 245.79 279.437 245.98 279.383 246.2L278.042 251.693C278.015 251.802 278.01 251.915 278.027 252.026C278.044 252.137 278.083 252.244 278.141 252.34C278.2 252.436 278.276 252.52 278.367 252.586C278.458 252.652 278.56 252.7 278.67 252.727C278.737 252.743 278.806 252.752 278.875 252.752Z" fill="#F3A13B"/>
<path d="M0.854248 294.102H339.449C339.676 294.102 339.893 294.039 340.053 293.925C340.213 293.812 340.303 293.658 340.303 293.498C340.303 293.337 340.213 293.183 340.053 293.07C339.893 292.957 339.676 292.893 339.449 292.893H0.854248C0.627686 292.893 0.41037 292.957 0.250183 293.07C0.0899658 293.183 0 293.337 0 293.498C0 293.658 0.0899658 293.812 0.250183 293.925C0.41037 294.039 0.627686 294.102 0.854248 294.102Z" fill="#1C2628"/>
<path d="M172.71 65.1655C175.587 65.1697 178.401 64.3204 180.795 62.7249C183.19 61.1294 185.057 58.8595 186.161 56.2024C187.265 53.5453 187.556 50.6205 186.998 47.7979C186.439 44.9754 185.055 42.382 183.022 40.3459C180.989 38.3098 178.398 36.9226 175.576 36.3597C172.754 35.7968 169.829 36.0836 167.17 37.1837C164.512 38.2838 162.239 40.1479 160.64 42.54C159.041 44.9321 158.188 47.7448 158.188 50.6221C158.193 54.4738 159.724 58.1665 162.446 60.8921C165.167 63.6177 168.858 65.1542 172.71 65.1655ZM172.71 37.7871C175.244 37.7871 177.721 38.5386 179.828 39.9466C181.936 41.3546 183.578 43.3558 184.548 45.6972C185.518 48.0386 185.771 50.6149 185.277 53.1005C184.783 55.5861 183.562 57.8693 181.77 59.6613C179.978 61.4533 177.695 62.6737 175.209 63.1681C172.724 63.6625 170.147 63.4088 167.806 62.4389C165.465 61.4691 163.463 59.8268 162.056 57.7196C160.648 55.6124 159.896 53.135 159.896 50.6007C159.905 47.2051 161.258 43.9512 163.659 41.5501C166.06 39.1491 169.314 37.7962 172.71 37.7871Z" fill="white"/>
<path d="M172.108 0H173.308C175.138 0 176.622 1.48393 176.622 3.31445V30.7099C176.622 32.5404 175.138 34.0243 173.308 34.0243H172.108C170.277 34.0243 168.793 32.5404 168.793 30.7099V3.31445C168.793 1.48393 170.277 0 172.108 0Z" fill="#1C2628"/>
<path d="M173.333 24.5337C182.376 24.6702 191.214 27.2414 198.918 31.9767C206.622 36.712 212.908 43.4364 217.113 51.4422C217.258 51.7151 217.329 52.0208 217.32 52.3295C217.312 52.6382 217.223 52.9394 217.064 53.2038C216.904 53.4682 216.679 53.6868 216.41 53.8385C216.141 53.9901 215.837 54.0695 215.529 54.069H129.87C129.561 54.0688 129.258 53.9888 128.99 53.8369C128.721 53.685 128.497 53.4662 128.338 53.202C128.179 52.9377 128.091 52.6368 128.082 52.3284C128.074 52.0201 128.145 51.7148 128.289 51.4422C132.596 43.2476 139.079 36.3997 147.027 31.6522C154.974 26.9047 164.077 24.4415 173.333 24.5337Z" fill="#1C2628"/>
<path d="M199.02 45.8726C204.641 45.8726 209.224 42.0755 209.293 42.0285C209.466 41.8824 209.574 41.6734 209.593 41.4475C209.613 41.2216 209.541 40.9974 209.395 40.824C209.249 40.6507 209.04 40.5426 208.814 40.5233C208.588 40.5041 208.364 40.5754 208.191 40.7215C207.815 41.0376 198.931 48.3584 191.345 40.7728L190.828 40.256L190.235 40.6831C189.807 40.9906 179.804 48.1491 172.419 40.7685L171.92 40.2645L171.33 40.666C169.649 41.7447 167.808 42.5518 165.876 43.0579C161.882 44.0659 158.576 43.2971 156.052 40.7685L155.523 40.2389L154.929 40.6916C154.532 40.9949 145.075 48.0637 137.776 40.7685C137.614 40.621 137.401 40.5415 137.182 40.5465C136.962 40.5515 136.753 40.6406 136.598 40.7954C136.443 40.9502 136.353 41.1588 136.347 41.378C136.341 41.5972 136.42 41.8102 136.567 41.973C143.802 49.2084 152.956 44.0445 155.36 42.4642C158.256 45.0269 162.036 45.8043 166.346 44.7023C168.229 44.2037 170.033 43.4446 171.706 42.4471C178.967 49.0546 188.214 43.989 190.64 42.4471C193.421 45.0055 196.338 45.8726 199.02 45.8726Z" fill="#FB6D6D"/>
<path d="M223.238 272.319C223.422 272.314 223.599 272.25 223.744 272.136C223.888 272.022 223.992 271.865 224.04 271.688C224.088 271.51 224.078 271.322 224.01 271.151C223.942 270.98 223.821 270.835 223.665 270.738C220.889 269.03 218.01 267.441 215.123 265.967C211.279 264.024 207.319 262.247 203.313 260.688C203.102 260.606 202.866 260.611 202.659 260.702C202.451 260.794 202.289 260.964 202.207 261.175C202.124 261.386 202.13 261.622 202.221 261.829C202.312 262.036 202.482 262.199 202.694 262.281C206.649 263.819 210.57 265.57 214.35 267.492C217.207 268.944 220.043 270.529 222.79 272.19C222.924 272.275 223.079 272.32 223.238 272.319Z" fill="#1C2628"/>
<path d="M333.482 247.734L328.532 228.992H356.615L352.156 247.939C357.22 250.148 361.365 254.041 363.888 258.958C366.41 263.874 367.156 269.511 365.997 274.914C364.839 280.317 361.848 285.153 357.532 288.603C353.215 292.053 347.839 293.905 342.314 293.844C336.788 293.783 331.454 291.814 327.214 288.27C322.975 284.726 320.091 279.826 319.051 274.399C318.012 268.971 318.881 263.352 321.511 258.492C324.141 253.633 328.37 249.832 333.482 247.734Z" fill="white"/>
<path d="M342.576 294.691C348.21 294.686 353.675 292.764 358.071 289.24C362.468 285.716 365.533 280.8 366.764 275.301C367.994 269.803 367.316 264.049 364.841 258.988C362.366 253.926 358.242 249.857 353.147 247.452L357.696 228.137H327.426L332.466 247.238C327.282 249.556 323.05 253.583 320.478 258.645C317.905 263.707 317.147 269.499 318.33 275.053C319.513 280.607 322.566 285.587 326.979 289.161C331.392 292.735 336.897 294.687 342.576 294.691ZM355.539 229.846L351.161 248.438L351.814 248.72C356.7 250.851 360.698 254.605 363.132 259.347C365.566 264.088 366.285 269.526 365.169 274.737C364.052 279.949 361.168 284.614 357.005 287.942C352.842 291.27 347.656 293.056 342.326 292.998C336.997 292.94 331.851 291.041 327.762 287.623C323.673 284.205 320.891 279.478 319.888 274.243C318.885 269.009 319.723 263.588 322.26 258.901C324.797 254.213 328.876 250.547 333.807 248.524L334.499 248.238L329.642 229.846H355.539Z" fill="#1C2628"/>
<path d="M342.584 231.319C334.191 231.319 327.387 229.878 327.387 228.099C327.387 226.32 334.191 224.878 342.584 224.878C350.977 224.878 357.781 226.32 357.781 228.099C357.781 229.878 350.977 231.319 342.584 231.319Z" fill="#1C2628"/>
<path d="M346.718 230.692C346.893 230.691 347.063 230.637 347.205 230.537C347.348 230.437 347.457 230.296 347.517 230.132C352.702 215.994 363.419 204.505 363.525 204.407C363.603 204.325 363.663 204.229 363.703 204.124C363.743 204.019 363.762 203.907 363.759 203.795C363.756 203.683 363.73 203.572 363.684 203.47C363.638 203.367 363.573 203.275 363.491 203.198C363.41 203.121 363.314 203.061 363.209 203.02C363.104 202.98 362.992 202.961 362.88 202.965C362.768 202.968 362.657 202.993 362.555 203.039C362.452 203.085 362.36 203.15 362.283 203.232C362.171 203.352 351.22 215.072 345.915 229.543C345.842 229.753 345.853 229.984 345.948 230.185C346.042 230.387 346.211 230.544 346.419 230.623C346.514 230.663 346.615 230.686 346.718 230.692Z" fill="#1C2628"/>
<path d="M339.876 230.807C340.103 230.807 340.32 230.717 340.48 230.557C340.64 230.397 340.73 230.179 340.73 229.953V217.72C340.73 217.493 340.64 217.276 340.48 217.116C340.32 216.956 340.103 216.866 339.876 216.866C339.649 216.866 339.432 216.956 339.272 217.116C339.112 217.276 339.022 217.493 339.022 217.72V229.953C339.022 230.179 339.112 230.397 339.272 230.557C339.432 230.717 339.649 230.807 339.876 230.807Z" fill="#1C2628"/>
<path d="M358.58 195.856H362.223C362.291 195.668 362.368 195.484 362.449 195.305L359.797 192.956C359.516 192.714 359.286 192.419 359.12 192.087C358.954 191.756 358.856 191.395 358.831 191.025C358.806 190.655 358.854 190.284 358.974 189.933C359.093 189.583 359.281 189.259 359.527 188.982C359.773 188.704 360.071 188.478 360.404 188.317C360.738 188.155 361.1 188.062 361.47 188.042C361.84 188.022 362.211 188.075 362.56 188.2C362.909 188.324 363.23 188.516 363.504 188.766L366.298 191.239C366.34 191.277 366.374 191.324 366.417 191.367C366.592 191.286 366.772 191.213 366.955 191.145V187.758C366.984 187.034 367.291 186.349 367.813 185.847C368.335 185.345 369.031 185.065 369.755 185.065C370.479 185.065 371.175 185.345 371.697 185.847C372.219 186.349 372.527 187.034 372.555 187.758V191.145C372.814 191.24 373.068 191.348 373.315 191.469C373.394 191.372 373.479 191.281 373.571 191.196L376.386 188.766C376.953 188.314 377.672 188.1 378.393 188.167C379.115 188.234 379.782 188.579 380.255 189.127C380.728 189.676 380.97 190.386 380.93 191.11C380.891 191.833 380.572 192.513 380.042 193.007L377.215 195.446C377.192 195.465 377.168 195.482 377.142 195.497C377.193 195.617 377.236 195.74 377.283 195.864H380.794C381.532 195.868 382.239 196.163 382.761 196.685C383.283 197.208 383.577 197.915 383.579 198.653C383.579 199.396 383.284 200.108 382.76 200.633C382.235 201.158 381.524 201.454 380.781 201.455H377.304L377.219 201.686H377.245L380.042 204.159C380.571 204.658 380.884 205.344 380.917 206.07C380.949 206.797 380.698 207.507 380.216 208.052C379.734 208.596 379.059 208.932 378.334 208.989C377.609 209.045 376.891 208.817 376.331 208.353L373.537 205.88L373.477 205.816C373.172 205.981 372.855 206.124 372.529 206.243V209.6C372.501 210.324 372.194 211.009 371.672 211.511C371.15 212.013 370.454 212.293 369.73 212.293C369.005 212.293 368.309 212.013 367.787 211.511C367.265 211.009 366.958 210.324 366.93 209.6V206.277C366.738 206.205 366.545 206.128 366.357 206.038L363.615 208.4C363.051 208.883 362.317 209.122 361.576 209.065C360.835 209.007 360.148 208.657 359.664 208.093C359.181 207.528 358.942 206.794 359 206.054C359.058 205.313 359.407 204.625 359.972 204.142L362.407 202.04C362.321 201.848 362.244 201.652 362.172 201.455H358.58C357.836 201.455 357.124 201.16 356.598 200.635C356.073 200.109 355.778 199.396 355.778 198.653C355.779 197.911 356.074 197.199 356.6 196.675C357.125 196.15 357.837 195.856 358.58 195.856Z" fill="#FAF6EB"/>
<path d="M358.58 195.856H362.223C362.291 195.668 362.368 195.484 362.449 195.305L359.797 192.956C359.516 192.714 359.286 192.419 359.12 192.087C358.954 191.756 358.856 191.395 358.831 191.025C358.806 190.655 358.854 190.284 358.974 189.933C359.093 189.583 359.281 189.259 359.527 188.982C359.773 188.704 360.071 188.478 360.404 188.317C360.738 188.155 361.1 188.062 361.47 188.042C361.84 188.022 362.211 188.075 362.56 188.2C362.909 188.324 363.23 188.516 363.504 188.766L366.298 191.239C366.34 191.277 366.374 191.324 366.417 191.367C366.592 191.286 366.772 191.213 366.955 191.145V187.758C366.984 187.034 367.291 186.349 367.813 185.847C368.335 185.345 369.031 185.065 369.755 185.065C370.479 185.065 371.175 185.345 371.697 185.847C372.219 186.349 372.527 187.034 372.555 187.758V191.145C372.814 191.24 373.068 191.348 373.315 191.469C373.394 191.372 373.479 191.281 373.571 191.196L376.386 188.766C376.953 188.314 377.672 188.1 378.393 188.167C379.115 188.234 379.782 188.579 380.255 189.127C380.728 189.676 380.97 190.386 380.93 191.11C380.891 191.833 380.572 192.513 380.042 193.007L377.215 195.446C377.192 195.465 377.168 195.482 377.142 195.497C377.193 195.617 377.236 195.74 377.283 195.864H380.794C381.532 195.868 382.239 196.163 382.761 196.685C383.283 197.208 383.577 197.915 383.579 198.653C383.579 199.396 383.284 200.108 382.76 200.633C382.235 201.158 381.524 201.454 380.781 201.455H377.304L377.219 201.686H377.245L380.042 204.159C380.571 204.658 380.884 205.344 380.917 206.07C380.949 206.797 380.698 207.507 380.216 208.052C379.734 208.596 379.059 208.932 378.334 208.989C377.609 209.045 376.891 208.817 376.331 208.353L373.537 205.88L373.477 205.816C373.172 205.981 372.855 206.124 372.529 206.243V209.6C372.501 210.324 372.194 211.009 371.672 211.511C371.15 212.013 370.454 212.293 369.73 212.293C369.005 212.293 368.309 212.013 367.787 211.511C367.265 211.009 366.958 210.324 366.93 209.6V206.277C366.738 206.205 366.545 206.128 366.357 206.038L363.615 208.4C363.051 208.883 362.317 209.122 361.576 209.065C360.835 209.007 360.148 208.657 359.664 208.093C359.181 207.528 358.942 206.794 359 206.054C359.058 205.313 359.407 204.625 359.972 204.142L362.407 202.04C362.321 201.848 362.244 201.652 362.172 201.455H358.58C357.836 201.455 357.124 201.16 356.598 200.635C356.073 200.109 355.778 199.396 355.778 198.653C355.779 197.911 356.074 197.199 356.6 196.675C357.125 196.15 357.837 195.856 358.58 195.856Z" fill="#FAF6EB"/>
<path d="M358.58 195.856H362.223C362.291 195.668 362.368 195.484 362.449 195.305L359.797 192.956C359.516 192.714 359.286 192.419 359.12 192.087C358.954 191.756 358.856 191.395 358.831 191.025C358.806 190.655 358.854 190.284 358.974 189.933C359.093 189.583 359.281 189.259 359.527 188.982C359.773 188.704 360.071 188.478 360.404 188.317C360.738 188.155 361.1 188.062 361.47 188.042C361.84 188.022 362.211 188.075 362.56 188.2C362.909 188.324 363.23 188.516 363.504 188.766L366.298 191.239C366.34 191.277 366.374 191.324 366.417 191.367C366.592 191.286 366.772 191.213 366.955 191.145V187.758C366.984 187.034 367.291 186.349 367.813 185.847C368.335 185.345 369.031 185.065 369.755 185.065C370.479 185.065 371.175 185.345 371.697 185.847C372.219 186.349 372.527 187.034 372.555 187.758V191.145C372.814 191.24 373.068 191.348 373.315 191.469C373.394 191.372 373.479 191.281 373.571 191.196L376.386 188.766C376.953 188.314 377.672 188.1 378.393 188.167C379.115 188.234 379.782 188.579 380.255 189.127C380.728 189.676 380.97 190.386 380.93 191.11C380.891 191.833 380.572 192.513 380.042 193.007L377.215 195.446C377.192 195.465 377.168 195.482 377.142 195.497C377.193 195.617 377.236 195.74 377.283 195.864H380.794C381.532 195.868 382.239 196.163 382.761 196.685C383.283 197.208 383.577 197.915 383.579 198.653C383.579 199.396 383.284 200.108 382.76 200.633C382.235 201.158 381.524 201.454 380.781 201.455H377.304L377.219 201.686H377.245L380.042 204.159C380.571 204.658 380.884 205.344 380.917 206.07C380.949 206.797 380.698 207.507 380.216 208.052C379.734 208.596 379.059 208.932 378.334 208.989C377.609 209.045 376.891 208.817 376.331 208.353L373.537 205.88L373.477 205.816C373.172 205.981 372.855 206.124 372.529 206.243V209.6C372.501 210.324 372.194 211.009 371.672 211.511C371.15 212.013 370.454 212.293 369.73 212.293C369.005 212.293 368.309 212.013 367.787 211.511C367.265 211.009 366.958 210.324 366.93 209.6V206.277C366.738 206.205 366.545 206.128 366.357 206.038L363.615 208.4C363.051 208.883 362.317 209.122 361.576 209.065C360.835 209.007 360.148 208.657 359.664 208.093C359.181 207.528 358.942 206.794 359 206.054C359.058 205.313 359.407 204.625 359.972 204.142L362.407 202.04C362.321 201.848 362.244 201.652 362.172 201.455H358.58C357.836 201.455 357.124 201.16 356.598 200.635C356.073 200.109 355.778 199.396 355.778 198.653C355.779 197.911 356.074 197.199 356.6 196.675C357.125 196.15 357.837 195.856 358.58 195.856Z" fill="#FAF6EB"/>
<path d="M358.58 195.856H362.223C362.291 195.668 362.368 195.484 362.449 195.305L359.797 192.956C359.516 192.714 359.286 192.419 359.12 192.087C358.954 191.756 358.856 191.395 358.831 191.025C358.806 190.655 358.854 190.284 358.974 189.933C359.093 189.583 359.281 189.259 359.527 188.982C359.773 188.704 360.071 188.478 360.404 188.317C360.738 188.155 361.1 188.062 361.47 188.042C361.84 188.022 362.211 188.075 362.56 188.2C362.909 188.324 363.23 188.516 363.504 188.766L366.298 191.239C366.34 191.277 366.374 191.324 366.417 191.367C366.592 191.286 366.772 191.213 366.955 191.145V187.758C366.984 187.034 367.291 186.349 367.813 185.847C368.335 185.345 369.031 185.065 369.755 185.065C370.479 185.065 371.175 185.345 371.697 185.847C372.219 186.349 372.527 187.034 372.555 187.758V191.145C372.814 191.24 373.068 191.348 373.315 191.469C373.394 191.372 373.479 191.281 373.571 191.196L376.386 188.766C376.953 188.314 377.672 188.1 378.393 188.167C379.115 188.234 379.782 188.579 380.255 189.127C380.728 189.676 380.97 190.386 380.93 191.11C380.891 191.833 380.572 192.513 380.042 193.007L377.215 195.446C377.192 195.465 377.168 195.482 377.142 195.497C377.193 195.617 377.236 195.74 377.283 195.864H380.794C381.532 195.868 382.239 196.163 382.761 196.685C383.283 197.208 383.577 197.915 383.579 198.653C383.579 199.396 383.284 200.108 382.76 200.633C382.235 201.158 381.524 201.454 380.781 201.455H377.304L377.219 201.686H377.245L380.042 204.159C380.571 204.658 380.884 205.344 380.917 206.07C380.949 206.797 380.698 207.507 380.216 208.052C379.734 208.596 379.059 208.932 378.334 208.989C377.609 209.045 376.891 208.817 376.331 208.353L373.537 205.88L373.477 205.816C373.172 205.981 372.855 206.124 372.529 206.243V209.6C372.501 210.324 372.194 211.009 371.672 211.511C371.15 212.013 370.454 212.293 369.73 212.293C369.005 212.293 368.309 212.013 367.787 211.511C367.265 211.009 366.958 210.324 366.93 209.6V206.277C366.738 206.205 366.545 206.128 366.357 206.038L363.615 208.4C363.051 208.883 362.317 209.122 361.576 209.065C360.835 209.007 360.148 208.657 359.664 208.093C359.181 207.528 358.942 206.794 359 206.054C359.058 205.313 359.407 204.625 359.972 204.142L362.407 202.04C362.321 201.848 362.244 201.652 362.172 201.455H358.58C357.836 201.455 357.124 201.16 356.598 200.635C356.073 200.109 355.778 199.396 355.778 198.653C355.779 197.911 356.074 197.199 356.6 196.675C357.125 196.15 357.837 195.856 358.58 195.856Z" fill="#FAF6EB"/>
<path d="M358.58 195.856H362.223C362.291 195.668 362.368 195.484 362.449 195.305L359.797 192.956C359.516 192.714 359.286 192.419 359.12 192.087C358.954 191.756 358.856 191.395 358.831 191.025C358.806 190.655 358.854 190.284 358.974 189.933C359.093 189.583 359.281 189.259 359.527 188.982C359.773 188.704 360.071 188.478 360.404 188.317C360.738 188.155 361.1 188.062 361.47 188.042C361.84 188.022 362.211 188.075 362.56 188.2C362.909 188.324 363.23 188.516 363.504 188.766L366.298 191.239C366.34 191.277 366.374 191.324 366.417 191.367C366.592 191.286 366.772 191.213 366.955 191.145V187.758C366.984 187.034 367.291 186.349 367.813 185.847C368.335 185.345 369.031 185.065 369.755 185.065C370.479 185.065 371.175 185.345 371.697 185.847C372.219 186.349 372.527 187.034 372.555 187.758V191.145C372.814 191.24 373.068 191.348 373.315 191.469C373.394 191.372 373.479 191.281 373.571 191.196L376.386 188.766C376.953 188.314 377.672 188.1 378.393 188.167C379.115 188.234 379.782 188.579 380.255 189.127C380.728 189.676 380.97 190.386 380.93 191.11C380.891 191.833 380.572 192.513 380.042 193.007L377.215 195.446C377.192 195.465 377.168 195.482 377.142 195.497C377.193 195.617 377.236 195.74 377.283 195.864H380.794C381.532 195.868 382.239 196.163 382.761 196.685C383.283 197.208 383.577 197.915 383.579 198.653C383.579 199.396 383.284 200.108 382.76 200.633C382.235 201.158 381.524 201.454 380.781 201.455H377.304L377.219 201.686H377.245L380.042 204.159C380.571 204.658 380.884 205.344 380.917 206.07C380.949 206.797 380.698 207.507 380.216 208.052C379.734 208.596 379.059 208.932 378.334 208.989C377.609 209.045 376.891 208.817 376.331 208.353L373.537 205.88L373.477 205.816C373.172 205.981 372.855 206.124 372.529 206.243V209.6C372.501 210.324 372.194 211.009 371.672 211.511C371.15 212.013 370.454 212.293 369.73 212.293C369.005 212.293 368.309 212.013 367.787 211.511C367.265 211.009 366.958 210.324 366.93 209.6V206.277C366.738 206.205 366.545 206.128 366.357 206.038L363.615 208.4C363.051 208.883 362.317 209.122 361.576 209.065C360.835 209.007 360.148 208.657 359.664 208.093C359.181 207.528 358.942 206.794 359 206.054C359.058 205.313 359.407 204.625 359.972 204.142L362.407 202.04C362.321 201.848 362.244 201.652 362.172 201.455H358.58C357.836 201.455 357.124 201.16 356.598 200.635C356.073 200.109 355.778 199.396 355.778 198.653C355.779 197.911 356.074 197.199 356.6 196.675C357.125 196.15 357.837 195.856 358.58 195.856Z" fill="#FAF6EB"/>
<path d="M358.58 195.856H362.223C362.291 195.668 362.368 195.484 362.449 195.305L359.797 192.956C359.516 192.714 359.286 192.419 359.12 192.087C358.954 191.756 358.856 191.395 358.831 191.025C358.806 190.655 358.854 190.284 358.974 189.933C359.093 189.583 359.281 189.259 359.527 188.982C359.773 188.704 360.071 188.478 360.404 188.317C360.738 188.155 361.1 188.062 361.47 188.042C361.84 188.022 362.211 188.075 362.56 188.2C362.909 188.324 363.23 188.516 363.504 188.766L366.298 191.239C366.34 191.277 366.374 191.324 366.417 191.367C366.592 191.286 366.772 191.213 366.955 191.145V187.758C366.984 187.034 367.291 186.349 367.813 185.847C368.335 185.345 369.031 185.065 369.755 185.065C370.479 185.065 371.175 185.345 371.697 185.847C372.219 186.349 372.527 187.034 372.555 187.758V191.145C372.814 191.24 373.068 191.348 373.315 191.469C373.394 191.372 373.479 191.281 373.571 191.196L376.386 188.766C376.953 188.314 377.672 188.1 378.393 188.167C379.115 188.234 379.782 188.579 380.255 189.127C380.728 189.676 380.97 190.386 380.93 191.11C380.891 191.833 380.572 192.513 380.042 193.007L377.215 195.446C377.192 195.465 377.168 195.482 377.142 195.497C377.193 195.617 377.236 195.74 377.283 195.864H380.794C381.532 195.868 382.239 196.163 382.761 196.685C383.283 197.208 383.577 197.915 383.579 198.653C383.579 199.396 383.284 200.108 382.76 200.633C382.235 201.158 381.524 201.454 380.781 201.455H377.304L377.219 201.686H377.245L380.042 204.159C380.571 204.658 380.884 205.344 380.917 206.07C380.949 206.797 380.698 207.507 380.216 208.052C379.734 208.596 379.059 208.932 378.334 208.989C377.609 209.045 376.891 208.817 376.331 208.353L373.537 205.88L373.477 205.816C373.172 205.981 372.855 206.124 372.529 206.243V209.6C372.501 210.324 372.194 211.009 371.672 211.511C371.15 212.013 370.454 212.293 369.73 212.293C369.005 212.293 368.309 212.013 367.787 211.511C367.265 211.009 366.958 210.324 366.93 209.6V206.277C366.738 206.205 366.545 206.128 366.357 206.038L363.615 208.4C363.051 208.883 362.317 209.122 361.576 209.065C360.835 209.007 360.148 208.657 359.664 208.093C359.181 207.528 358.942 206.794 359 206.054C359.058 205.313 359.407 204.625 359.972 204.142L362.407 202.04C362.321 201.848 362.244 201.652 362.172 201.455H358.58C357.836 201.455 357.124 201.16 356.598 200.635C356.073 200.109 355.778 199.396 355.778 198.653C355.779 197.911 356.074 197.199 356.6 196.675C357.125 196.15 357.837 195.856 358.58 195.856Z" fill="#FAF6EB"/>
<path d="M358.58 195.856H362.223C362.291 195.668 362.368 195.484 362.449 195.305L359.797 192.956C359.516 192.714 359.286 192.419 359.12 192.087C358.954 191.756 358.856 191.395 358.831 191.025C358.806 190.655 358.854 190.284 358.974 189.933C359.093 189.583 359.281 189.259 359.527 188.982C359.773 188.704 360.071 188.478 360.404 188.317C360.738 188.155 361.1 188.062 361.47 188.042C361.84 188.022 362.211 188.075 362.56 188.2C362.909 188.324 363.23 188.516 363.504 188.766L366.298 191.239C366.34 191.277 366.374 191.324 366.417 191.367C366.592 191.286 366.772 191.213 366.955 191.145V187.758C366.984 187.034 367.291 186.349 367.813 185.847C368.335 185.345 369.031 185.065 369.755 185.065C370.479 185.065 371.175 185.345 371.697 185.847C372.219 186.349 372.527 187.034 372.555 187.758V191.145C372.814 191.24 373.068 191.348 373.315 191.469C373.394 191.372 373.479 191.281 373.571 191.196L376.386 188.766C376.953 188.314 377.672 188.1 378.393 188.167C379.115 188.234 379.782 188.579 380.255 189.127C380.728 189.676 380.97 190.386 380.93 191.11C380.891 191.833 380.572 192.513 380.042 193.007L377.215 195.446C377.192 195.465 377.168 195.482 377.142 195.497C377.193 195.617 377.236 195.74 377.283 195.864H380.794C381.532 195.868 382.239 196.163 382.761 196.685C383.283 197.208 383.577 197.915 383.579 198.653C383.579 199.396 383.284 200.108 382.76 200.633C382.235 201.158 381.524 201.454 380.781 201.455H377.304L377.219 201.686H377.245L380.042 204.159C380.571 204.658 380.884 205.344 380.917 206.07C380.949 206.797 380.698 207.507 380.216 208.052C379.734 208.596 379.059 208.932 378.334 208.989C377.609 209.045 376.891 208.817 376.331 208.353L373.537 205.88L373.477 205.816C373.172 205.981 372.855 206.124 372.529 206.243V209.6C372.501 210.324 372.194 211.009 371.672 211.511C371.15 212.013 370.454 212.293 369.73 212.293C369.005 212.293 368.309 212.013 367.787 211.511C367.265 211.009 366.958 210.324 366.93 209.6V206.277C366.738 206.205 366.545 206.128 366.357 206.038L363.615 208.4C363.051 208.883 362.317 209.122 361.576 209.065C360.835 209.007 360.148 208.657 359.664 208.093C359.181 207.528 358.942 206.794 359 206.054C359.058 205.313 359.407 204.625 359.972 204.142L362.407 202.04C362.321 201.848 362.244 201.652 362.172 201.455H358.58C357.836 201.455 357.124 201.16 356.598 200.635C356.073 200.109 355.778 199.396 355.778 198.653C355.779 197.911 356.074 197.199 356.6 196.675C357.125 196.15 357.837 195.856 358.58 195.856Z" fill="#F45B49"/>
<path d="M328.767 206.171H332.393C332.461 205.983 332.538 205.803 332.624 205.624L329.967 203.275C329.438 202.775 329.125 202.09 329.093 201.363C329.06 200.637 329.311 199.926 329.793 199.382C330.275 198.837 330.95 198.501 331.675 198.445C332.4 198.389 333.118 198.617 333.679 199.08L336.472 201.553C336.514 201.594 336.554 201.637 336.592 201.682C336.767 201.6 336.95 201.528 337.134 201.459V198.072C337.162 197.349 337.47 196.664 337.992 196.162C338.514 195.66 339.21 195.38 339.934 195.38C340.658 195.38 341.354 195.66 341.876 196.162C342.398 196.664 342.705 197.349 342.733 198.072V201.459C342.99 201.553 343.242 201.664 343.489 201.784C343.569 201.688 343.655 201.597 343.746 201.511L346.573 199.072C346.849 198.815 347.174 198.616 347.529 198.488C347.883 198.359 348.26 198.304 348.636 198.324C349.013 198.345 349.381 198.441 349.72 198.608C350.058 198.774 350.359 199.007 350.605 199.292C350.852 199.578 351.038 199.91 351.152 200.27C351.267 200.629 351.308 201.007 351.273 201.383C351.238 201.758 351.127 202.123 350.948 202.454C350.769 202.786 350.524 203.078 350.229 203.313L347.406 205.752C347.382 205.771 347.356 205.788 347.329 205.803C347.381 205.923 347.428 206.047 347.47 206.171H350.981C351.723 206.171 352.435 206.465 352.959 206.99C353.484 207.515 353.779 208.226 353.779 208.968C353.779 209.711 353.484 210.423 352.96 210.948C352.435 211.473 351.724 211.769 350.981 211.77H347.504C347.479 211.847 347.449 211.928 347.419 212.005C347.419 212.005 347.419 212.005 347.445 212.005L350.242 214.478C350.532 214.718 350.77 215.013 350.943 215.346C351.116 215.68 351.22 216.045 351.249 216.42C351.278 216.794 351.231 217.171 351.112 217.527C350.993 217.883 350.803 218.212 350.554 218.493C350.305 218.774 350.002 219.003 349.663 219.165C349.324 219.327 348.955 219.419 348.58 219.435C348.205 219.452 347.83 219.393 347.478 219.262C347.126 219.131 346.804 218.93 346.531 218.672L343.737 216.199L343.677 216.14C343.372 216.302 343.057 216.445 342.733 216.567V219.945C342.705 220.669 342.398 221.353 341.876 221.855C341.354 222.357 340.658 222.638 339.934 222.638C339.21 222.638 338.514 222.357 337.992 221.855C337.47 221.353 337.162 220.669 337.134 219.945V216.571C336.937 216.498 336.745 216.421 336.557 216.332L333.82 218.694C333.541 218.934 333.218 219.117 332.869 219.233C332.52 219.348 332.152 219.394 331.785 219.367C331.419 219.341 331.061 219.242 330.732 219.077C330.404 218.912 330.111 218.684 329.871 218.405C329.63 218.127 329.447 217.804 329.332 217.455C329.216 217.106 329.17 216.738 329.197 216.371C329.224 216.005 329.323 215.647 329.488 215.318C329.653 214.99 329.881 214.697 330.159 214.457L332.598 212.355C332.508 212.163 332.431 211.967 332.359 211.77H328.767C328.024 211.769 327.313 211.473 326.788 210.948C326.264 210.423 325.969 209.711 325.969 208.968C325.969 208.601 326.041 208.237 326.182 207.898C326.323 207.558 326.529 207.25 326.788 206.99C327.048 206.73 327.357 206.524 327.696 206.383C328.036 206.243 328.399 206.171 328.767 206.171Z" fill="#FAF6EB"/>
<path d="M328.767 206.171H332.393C332.461 205.983 332.538 205.803 332.624 205.624L329.967 203.275C329.438 202.775 329.125 202.09 329.093 201.363C329.06 200.637 329.311 199.926 329.793 199.382C330.275 198.837 330.95 198.501 331.675 198.445C332.4 198.389 333.118 198.617 333.679 199.08L336.472 201.553C336.514 201.594 336.554 201.637 336.592 201.682C336.767 201.6 336.95 201.528 337.134 201.459V198.072C337.162 197.349 337.47 196.664 337.992 196.162C338.514 195.66 339.21 195.38 339.934 195.38C340.658 195.38 341.354 195.66 341.876 196.162C342.398 196.664 342.705 197.349 342.733 198.072V201.459C342.99 201.553 343.242 201.664 343.489 201.784C343.569 201.688 343.655 201.597 343.746 201.511L346.573 199.072C346.849 198.815 347.174 198.616 347.529 198.488C347.883 198.359 348.26 198.304 348.636 198.324C349.013 198.345 349.381 198.441 349.72 198.608C350.058 198.774 350.359 199.007 350.605 199.292C350.852 199.578 351.038 199.91 351.152 200.27C351.267 200.629 351.308 201.007 351.273 201.383C351.238 201.758 351.127 202.123 350.948 202.454C350.769 202.786 350.524 203.078 350.229 203.313L347.406 205.752C347.382 205.771 347.356 205.788 347.329 205.803C347.381 205.923 347.428 206.047 347.47 206.171H350.981C351.723 206.171 352.435 206.465 352.959 206.99C353.484 207.515 353.779 208.226 353.779 208.968C353.779 209.711 353.484 210.423 352.96 210.948C352.435 211.473 351.724 211.769 350.981 211.77H347.504C347.479 211.847 347.449 211.928 347.419 212.005C347.419 212.005 347.419 212.005 347.445 212.005L350.242 214.478C350.532 214.718 350.77 215.013 350.943 215.346C351.116 215.68 351.22 216.045 351.249 216.42C351.278 216.794 351.231 217.171 351.112 217.527C350.993 217.883 350.803 218.212 350.554 218.493C350.305 218.774 350.002 219.003 349.663 219.165C349.324 219.327 348.955 219.419 348.58 219.435C348.205 219.452 347.83 219.393 347.478 219.262C347.126 219.131 346.804 218.93 346.531 218.672L343.737 216.199L343.677 216.14C343.372 216.302 343.057 216.445 342.733 216.567V219.945C342.705 220.669 342.398 221.353 341.876 221.855C341.354 222.357 340.658 222.638 339.934 222.638C339.21 222.638 338.514 222.357 337.992 221.855C337.47 221.353 337.162 220.669 337.134 219.945V216.571C336.937 216.498 336.745 216.421 336.557 216.332L333.82 218.694C333.541 218.934 333.218 219.117 332.869 219.233C332.52 219.348 332.152 219.394 331.785 219.367C331.419 219.341 331.061 219.242 330.732 219.077C330.404 218.912 330.111 218.684 329.871 218.405C329.63 218.127 329.447 217.804 329.332 217.455C329.216 217.106 329.17 216.738 329.197 216.371C329.224 216.005 329.323 215.647 329.488 215.318C329.653 214.99 329.881 214.697 330.159 214.457L332.598 212.355C332.508 212.163 332.431 211.967 332.359 211.77H328.767C328.024 211.769 327.313 211.473 326.788 210.948C326.264 210.423 325.969 209.711 325.969 208.968C325.969 208.601 326.041 208.237 326.182 207.898C326.323 207.558 326.529 207.25 326.788 206.99C327.048 206.73 327.357 206.524 327.696 206.383C328.036 206.243 328.399 206.171 328.767 206.171Z" fill="#FAF6EB"/>
<path d="M328.767 206.171H332.393C332.461 205.983 332.538 205.803 332.624 205.624L329.967 203.275C329.438 202.775 329.125 202.09 329.093 201.363C329.06 200.637 329.311 199.926 329.793 199.382C330.275 198.837 330.95 198.501 331.675 198.445C332.4 198.389 333.118 198.617 333.679 199.08L336.472 201.553C336.514 201.594 336.554 201.637 336.592 201.682C336.767 201.6 336.95 201.528 337.134 201.459V198.072C337.162 197.349 337.47 196.664 337.992 196.162C338.514 195.66 339.21 195.38 339.934 195.38C340.658 195.38 341.354 195.66 341.876 196.162C342.398 196.664 342.705 197.349 342.733 198.072V201.459C342.99 201.553 343.242 201.664 343.489 201.784C343.569 201.688 343.655 201.597 343.746 201.511L346.573 199.072C346.849 198.815 347.174 198.616 347.529 198.488C347.883 198.359 348.26 198.304 348.636 198.324C349.013 198.345 349.381 198.441 349.72 198.608C350.058 198.774 350.359 199.007 350.605 199.292C350.852 199.578 351.038 199.91 351.152 200.27C351.267 200.629 351.308 201.007 351.273 201.383C351.238 201.758 351.127 202.123 350.948 202.454C350.769 202.786 350.524 203.078 350.229 203.313L347.406 205.752C347.382 205.771 347.356 205.788 347.329 205.803C347.381 205.923 347.428 206.047 347.47 206.171H350.981C351.723 206.171 352.435 206.465 352.959 206.99C353.484 207.515 353.779 208.226 353.779 208.968C353.779 209.711 353.484 210.423 352.96 210.948C352.435 211.473 351.724 211.769 350.981 211.77H347.504C347.479 211.847 347.449 211.928 347.419 212.005C347.419 212.005 347.419 212.005 347.445 212.005L350.242 214.478C350.532 214.718 350.77 215.013 350.943 215.346C351.116 215.68 351.22 216.045 351.249 216.42C351.278 216.794 351.231 217.171 351.112 217.527C350.993 217.883 350.803 218.212 350.554 218.493C350.305 218.774 350.002 219.003 349.663 219.165C349.324 219.327 348.955 219.419 348.58 219.435C348.205 219.452 347.83 219.393 347.478 219.262C347.126 219.131 346.804 218.93 346.531 218.672L343.737 216.199L343.677 216.14C343.372 216.302 343.057 216.445 342.733 216.567V219.945C342.705 220.669 342.398 221.353 341.876 221.855C341.354 222.357 340.658 222.638 339.934 222.638C339.21 222.638 338.514 222.357 337.992 221.855C337.47 221.353 337.162 220.669 337.134 219.945V216.571C336.937 216.498 336.745 216.421 336.557 216.332L333.82 218.694C333.541 218.934 333.218 219.117 332.869 219.233C332.52 219.348 332.152 219.394 331.785 219.367C331.419 219.341 331.061 219.242 330.732 219.077C330.404 218.912 330.111 218.684 329.871 218.405C329.63 218.127 329.447 217.804 329.332 217.455C329.216 217.106 329.17 216.738 329.197 216.371C329.224 216.005 329.323 215.647 329.488 215.318C329.653 214.99 329.881 214.697 330.159 214.457L332.598 212.355C332.508 212.163 332.431 211.967 332.359 211.77H328.767C328.024 211.769 327.313 211.473 326.788 210.948C326.264 210.423 325.969 209.711 325.969 208.968C325.969 208.601 326.041 208.237 326.182 207.898C326.323 207.558 326.529 207.25 326.788 206.99C327.048 206.73 327.357 206.524 327.696 206.383C328.036 206.243 328.399 206.171 328.767 206.171Z" fill="#FAF6EB"/>
<path d="M328.767 206.171H332.393C332.461 205.983 332.538 205.803 332.624 205.624L329.967 203.275C329.438 202.775 329.125 202.09 329.093 201.363C329.06 200.637 329.311 199.926 329.793 199.382C330.275 198.837 330.95 198.501 331.675 198.445C332.4 198.389 333.118 198.617 333.679 199.08L336.472 201.553C336.514 201.594 336.554 201.637 336.592 201.682C336.767 201.6 336.95 201.528 337.134 201.459V198.072C337.162 197.349 337.47 196.664 337.992 196.162C338.514 195.66 339.21 195.38 339.934 195.38C340.658 195.38 341.354 195.66 341.876 196.162C342.398 196.664 342.705 197.349 342.733 198.072V201.459C342.99 201.553 343.242 201.664 343.489 201.784C343.569 201.688 343.655 201.597 343.746 201.511L346.573 199.072C346.849 198.815 347.174 198.616 347.529 198.488C347.883 198.359 348.26 198.304 348.636 198.324C349.013 198.345 349.381 198.441 349.72 198.608C350.058 198.774 350.359 199.007 350.605 199.292C350.852 199.578 351.038 199.91 351.152 200.27C351.267 200.629 351.308 201.007 351.273 201.383C351.238 201.758 351.127 202.123 350.948 202.454C350.769 202.786 350.524 203.078 350.229 203.313L347.406 205.752C347.382 205.771 347.356 205.788 347.329 205.803C347.381 205.923 347.428 206.047 347.47 206.171H350.981C351.723 206.171 352.435 206.465 352.959 206.99C353.484 207.515 353.779 208.226 353.779 208.968C353.779 209.711 353.484 210.423 352.96 210.948C352.435 211.473 351.724 211.769 350.981 211.77H347.504C347.479 211.847 347.449 211.928 347.419 212.005C347.419 212.005 347.419 212.005 347.445 212.005L350.242 214.478C350.532 214.718 350.77 215.013 350.943 215.346C351.116 215.68 351.22 216.045 351.249 216.42C351.278 216.794 351.231 217.171 351.112 217.527C350.993 217.883 350.803 218.212 350.554 218.493C350.305 218.774 350.002 219.003 349.663 219.165C349.324 219.327 348.955 219.419 348.58 219.435C348.205 219.452 347.83 219.393 347.478 219.262C347.126 219.131 346.804 218.93 346.531 218.672L343.737 216.199L343.677 216.14C343.372 216.302 343.057 216.445 342.733 216.567V219.945C342.705 220.669 342.398 221.353 341.876 221.855C341.354 222.357 340.658 222.638 339.934 222.638C339.21 222.638 338.514 222.357 337.992 221.855C337.47 221.353 337.162 220.669 337.134 219.945V216.571C336.937 216.498 336.745 216.421 336.557 216.332L333.82 218.694C333.541 218.934 333.218 219.117 332.869 219.233C332.52 219.348 332.152 219.394 331.785 219.367C331.419 219.341 331.061 219.242 330.732 219.077C330.404 218.912 330.111 218.684 329.871 218.405C329.63 218.127 329.447 217.804 329.332 217.455C329.216 217.106 329.17 216.738 329.197 216.371C329.224 216.005 329.323 215.647 329.488 215.318C329.653 214.99 329.881 214.697 330.159 214.457L332.598 212.355C332.508 212.163 332.431 211.967 332.359 211.77H328.767C328.024 211.769 327.313 211.473 326.788 210.948C326.264 210.423 325.969 209.711 325.969 208.968C325.969 208.601 326.041 208.237 326.182 207.898C326.323 207.558 326.529 207.25 326.788 206.99C327.048 206.73 327.357 206.524 327.696 206.383C328.036 206.243 328.399 206.171 328.767 206.171Z" fill="#FAF6EB"/>
<path d="M328.767 206.171H332.393C332.461 205.983 332.538 205.803 332.624 205.624L329.967 203.275C329.438 202.775 329.125 202.09 329.093 201.363C329.06 200.637 329.311 199.926 329.793 199.382C330.275 198.837 330.95 198.501 331.675 198.445C332.4 198.389 333.118 198.617 333.679 199.08L336.472 201.553C336.514 201.594 336.554 201.637 336.592 201.682C336.767 201.6 336.95 201.528 337.134 201.459V198.072C337.162 197.349 337.47 196.664 337.992 196.162C338.514 195.66 339.21 195.38 339.934 195.38C340.658 195.38 341.354 195.66 341.876 196.162C342.398 196.664 342.705 197.349 342.733 198.072V201.459C342.99 201.553 343.242 201.664 343.489 201.784C343.569 201.688 343.655 201.597 343.746 201.511L346.573 199.072C346.849 198.815 347.174 198.616 347.529 198.488C347.883 198.359 348.26 198.304 348.636 198.324C349.013 198.345 349.381 198.441 349.72 198.608C350.058 198.774 350.359 199.007 350.605 199.292C350.852 199.578 351.038 199.91 351.152 200.27C351.267 200.629 351.308 201.007 351.273 201.383C351.238 201.758 351.127 202.123 350.948 202.454C350.769 202.786 350.524 203.078 350.229 203.313L347.406 205.752C347.382 205.771 347.356 205.788 347.329 205.803C347.381 205.923 347.428 206.047 347.47 206.171H350.981C351.723 206.171 352.435 206.465 352.959 206.99C353.484 207.515 353.779 208.226 353.779 208.968C353.779 209.711 353.484 210.423 352.96 210.948C352.435 211.473 351.724 211.769 350.981 211.77H347.504C347.479 211.847 347.449 211.928 347.419 212.005C347.419 212.005 347.419 212.005 347.445 212.005L350.242 214.478C350.532 214.718 350.77 215.013 350.943 215.346C351.116 215.68 351.22 216.045 351.249 216.42C351.278 216.794 351.231 217.171 351.112 217.527C350.993 217.883 350.803 218.212 350.554 218.493C350.305 218.774 350.002 219.003 349.663 219.165C349.324 219.327 348.955 219.419 348.58 219.435C348.205 219.452 347.83 219.393 347.478 219.262C347.126 219.131 346.804 218.93 346.531 218.672L343.737 216.199L343.677 216.14C343.372 216.302 343.057 216.445 342.733 216.567V219.945C342.705 220.669 342.398 221.353 341.876 221.855C341.354 222.357 340.658 222.638 339.934 222.638C339.21 222.638 338.514 222.357 337.992 221.855C337.47 221.353 337.162 220.669 337.134 219.945V216.571C336.937 216.498 336.745 216.421 336.557 216.332L333.82 218.694C333.541 218.934 333.218 219.117 332.869 219.233C332.52 219.348 332.152 219.394 331.785 219.367C331.419 219.341 331.061 219.242 330.732 219.077C330.404 218.912 330.111 218.684 329.871 218.405C329.63 218.127 329.447 217.804 329.332 217.455C329.216 217.106 329.17 216.738 329.197 216.371C329.224 216.005 329.323 215.647 329.488 215.318C329.653 214.99 329.881 214.697 330.159 214.457L332.598 212.355C332.508 212.163 332.431 211.967 332.359 211.77H328.767C328.024 211.769 327.313 211.473 326.788 210.948C326.264 210.423 325.969 209.711 325.969 208.968C325.969 208.601 326.041 208.237 326.182 207.898C326.323 207.558 326.529 207.25 326.788 206.99C327.048 206.73 327.357 206.524 327.696 206.383C328.036 206.243 328.399 206.171 328.767 206.171Z" fill="#FAF6EB"/>
<path d="M328.767 206.171H332.393C332.461 205.983 332.538 205.803 332.624 205.624L329.967 203.275C329.438 202.775 329.125 202.09 329.093 201.363C329.06 200.637 329.311 199.926 329.793 199.382C330.275 198.837 330.95 198.501 331.675 198.445C332.4 198.389 333.118 198.617 333.679 199.08L336.472 201.553C336.514 201.594 336.554 201.637 336.592 201.682C336.767 201.6 336.95 201.528 337.134 201.459V198.072C337.162 197.349 337.47 196.664 337.992 196.162C338.514 195.66 339.21 195.38 339.934 195.38C340.658 195.38 341.354 195.66 341.876 196.162C342.398 196.664 342.705 197.349 342.733 198.072V201.459C342.99 201.553 343.242 201.664 343.489 201.784C343.569 201.688 343.655 201.597 343.746 201.511L346.573 199.072C346.849 198.815 347.174 198.616 347.529 198.488C347.883 198.359 348.26 198.304 348.636 198.324C349.013 198.345 349.381 198.441 349.72 198.608C350.058 198.774 350.359 199.007 350.605 199.292C350.852 199.578 351.038 199.91 351.152 200.27C351.267 200.629 351.308 201.007 351.273 201.383C351.238 201.758 351.127 202.123 350.948 202.454C350.769 202.786 350.524 203.078 350.229 203.313L347.406 205.752C347.382 205.771 347.356 205.788 347.329 205.803C347.381 205.923 347.428 206.047 347.47 206.171H350.981C351.723 206.171 352.435 206.465 352.959 206.99C353.484 207.515 353.779 208.226 353.779 208.968C353.779 209.711 353.484 210.423 352.96 210.948C352.435 211.473 351.724 211.769 350.981 211.77H347.504C347.479 211.847 347.449 211.928 347.419 212.005C347.419 212.005 347.419 212.005 347.445 212.005L350.242 214.478C350.532 214.718 350.77 215.013 350.943 215.346C351.116 215.68 351.22 216.045 351.249 216.42C351.278 216.794 351.231 217.171 351.112 217.527C350.993 217.883 350.803 218.212 350.554 218.493C350.305 218.774 350.002 219.003 349.663 219.165C349.324 219.327 348.955 219.419 348.58 219.435C348.205 219.452 347.83 219.393 347.478 219.262C347.126 219.131 346.804 218.93 346.531 218.672L343.737 216.199L343.677 216.14C343.372 216.302 343.057 216.445 342.733 216.567V219.945C342.705 220.669 342.398 221.353 341.876 221.855C341.354 222.357 340.658 222.638 339.934 222.638C339.21 222.638 338.514 222.357 337.992 221.855C337.47 221.353 337.162 220.669 337.134 219.945V216.571C336.937 216.498 336.745 216.421 336.557 216.332L333.82 218.694C333.541 218.934 333.218 219.117 332.869 219.233C332.52 219.348 332.152 219.394 331.785 219.367C331.419 219.341 331.061 219.242 330.732 219.077C330.404 218.912 330.111 218.684 329.871 218.405C329.63 218.127 329.447 217.804 329.332 217.455C329.216 217.106 329.17 216.738 329.197 216.371C329.224 216.005 329.323 215.647 329.488 215.318C329.653 214.99 329.881 214.697 330.159 214.457L332.598 212.355C332.508 212.163 332.431 211.967 332.359 211.77H328.767C328.024 211.769 327.313 211.473 326.788 210.948C326.264 210.423 325.969 209.711 325.969 208.968C325.969 208.601 326.041 208.237 326.182 207.898C326.323 207.558 326.529 207.25 326.788 206.99C327.048 206.73 327.357 206.524 327.696 206.383C328.036 206.243 328.399 206.171 328.767 206.171Z" fill="#FAF6EB"/>
<path d="M328.767 206.171H332.393C332.461 205.983 332.538 205.803 332.624 205.624L329.967 203.275C329.438 202.775 329.125 202.09 329.093 201.363C329.06 200.637 329.311 199.926 329.793 199.382C330.275 198.837 330.95 198.501 331.675 198.445C332.4 198.389 333.118 198.617 333.679 199.08L336.472 201.553C336.514 201.594 336.554 201.637 336.592 201.682C336.767 201.6 336.95 201.528 337.134 201.459V198.072C337.162 197.349 337.47 196.664 337.992 196.162C338.514 195.66 339.21 195.38 339.934 195.38C340.658 195.38 341.354 195.66 341.876 196.162C342.398 196.664 342.705 197.349 342.733 198.072V201.459C342.99 201.553 343.242 201.664 343.489 201.784C343.569 201.688 343.655 201.597 343.746 201.511L346.573 199.072C346.849 198.815 347.174 198.616 347.529 198.488C347.883 198.359 348.26 198.304 348.636 198.324C349.013 198.345 349.381 198.441 349.72 198.608C350.058 198.774 350.359 199.007 350.605 199.292C350.852 199.578 351.038 199.91 351.152 200.27C351.267 200.629 351.308 201.007 351.273 201.383C351.238 201.758 351.127 202.123 350.948 202.454C350.769 202.786 350.524 203.078 350.229 203.313L347.406 205.752C347.382 205.771 347.356 205.788 347.329 205.803C347.381 205.923 347.428 206.047 347.47 206.171H350.981C351.723 206.171 352.435 206.465 352.959 206.99C353.484 207.515 353.779 208.226 353.779 208.968C353.779 209.711 353.484 210.423 352.96 210.948C352.435 211.473 351.724 211.769 350.981 211.77H347.504C347.479 211.847 347.449 211.928 347.419 212.005C347.419 212.005 347.419 212.005 347.445 212.005L350.242 214.478C350.532 214.718 350.77 215.013 350.943 215.346C351.116 215.68 351.22 216.045 351.249 216.42C351.278 216.794 351.231 217.171 351.112 217.527C350.993 217.883 350.803 218.212 350.554 218.493C350.305 218.774 350.002 219.003 349.663 219.165C349.324 219.327 348.955 219.419 348.58 219.435C348.205 219.452 347.83 219.393 347.478 219.262C347.126 219.131 346.804 218.93 346.531 218.672L343.737 216.199L343.677 216.14C343.372 216.302 343.057 216.445 342.733 216.567V219.945C342.705 220.669 342.398 221.353 341.876 221.855C341.354 222.357 340.658 222.638 339.934 222.638C339.21 222.638 338.514 222.357 337.992 221.855C337.47 221.353 337.162 220.669 337.134 219.945V216.571C336.937 216.498 336.745 216.421 336.557 216.332L333.82 218.694C333.541 218.934 333.218 219.117 332.869 219.233C332.52 219.348 332.152 219.394 331.785 219.367C331.419 219.341 331.061 219.242 330.732 219.077C330.404 218.912 330.111 218.684 329.871 218.405C329.63 218.127 329.447 217.804 329.332 217.455C329.216 217.106 329.17 216.738 329.197 216.371C329.224 216.005 329.323 215.647 329.488 215.318C329.653 214.99 329.881 214.697 330.159 214.457L332.598 212.355C332.508 212.163 332.431 211.967 332.359 211.77H328.767C328.024 211.769 327.313 211.473 326.788 210.948C326.264 210.423 325.969 209.711 325.969 208.968C325.969 208.601 326.041 208.237 326.182 207.898C326.323 207.558 326.529 207.25 326.788 206.99C327.048 206.73 327.357 206.524 327.696 206.383C328.036 206.243 328.399 206.171 328.767 206.171Z" fill="#F45B49"/>
<path d="M369.685 202.391C367.637 202.391 365.977 200.731 365.977 198.683C365.977 196.636 367.637 194.976 369.685 194.976C371.732 194.976 373.392 196.636 373.392 198.683C373.392 200.731 371.732 202.391 369.685 202.391Z" fill="#1C2628"/>
<path d="M339.872 212.906C337.824 212.906 336.164 211.246 336.164 209.199C336.164 207.151 337.824 205.491 339.872 205.491C341.919 205.491 343.579 207.151 343.579 209.199C343.579 211.246 341.919 212.906 339.872 212.906Z" fill="#1C2628"/>
<path d="M335.003 276.218C336.391 276.218 337.749 275.807 338.904 275.035C340.058 274.263 340.958 273.167 341.49 271.884C342.021 270.601 342.16 269.189 341.889 267.827C341.619 266.465 340.95 265.213 339.968 264.231C338.986 263.249 337.735 262.581 336.372 262.31C335.01 262.039 333.598 262.178 332.315 262.709C331.032 263.241 329.936 264.141 329.164 265.295C328.393 266.45 327.981 267.808 327.981 269.197C327.983 271.058 328.724 272.843 330.04 274.159C331.356 275.476 333.141 276.216 335.003 276.218ZM335.003 263.883C336.053 263.883 337.081 264.195 337.955 264.779C338.828 265.362 339.509 266.192 339.911 267.163C340.314 268.134 340.419 269.202 340.214 270.233C340.009 271.264 339.503 272.211 338.76 272.954C338.017 273.697 337.07 274.203 336.039 274.408C335.008 274.613 333.94 274.508 332.969 274.105C331.998 273.703 331.169 273.022 330.585 272.148C330.001 271.275 329.689 270.247 329.689 269.197C329.693 267.788 330.253 266.439 331.249 265.443C332.245 264.447 333.594 263.887 335.003 263.883Z" fill="#1C2628"/>
<path d="M346.065 287.9C347.027 287.9 347.968 287.615 348.768 287.08C349.568 286.545 350.191 285.786 350.56 284.897C350.928 284.008 351.024 283.03 350.836 282.086C350.649 281.142 350.185 280.275 349.505 279.595C348.825 278.915 347.958 278.451 347.014 278.264C346.07 278.076 345.092 278.172 344.203 278.54C343.314 278.909 342.555 279.532 342.02 280.332C341.485 281.132 341.2 282.073 341.2 283.035C341.201 284.325 341.714 285.562 342.626 286.474C343.538 287.386 344.775 287.899 346.065 287.9ZM346.065 279.879C346.689 279.879 347.3 280.064 347.819 280.411C348.338 280.757 348.742 281.25 348.981 281.827C349.22 282.404 349.283 283.039 349.161 283.651C349.039 284.263 348.738 284.826 348.297 285.267C347.856 285.708 347.293 286.009 346.681 286.131C346.069 286.253 345.434 286.19 344.857 285.951C344.28 285.712 343.787 285.308 343.441 284.789C343.094 284.27 342.909 283.659 342.909 283.035C342.91 282.198 343.243 281.396 343.834 280.804C344.426 280.213 345.228 279.88 346.065 279.879Z" fill="#1C2628"/>
</svg>
