<svg width="319" height="301" viewBox="0 0 319 301" fill="none" xmlns="http://www.w3.org/2000/svg">
<path fill-rule="evenodd" clip-rule="evenodd" d="M85.7956 261.289C85.7956 261.289 77.4101 274.617 78.4376 277.395C79.5976 280.603 88.0493 290.293 88.0493 290.293L112.145 289.665L101.406 286.027L95.6062 276.237L102.6 263.471L85.7956 261.289Z" fill="#F45B49" stroke="#1C2628" stroke-width="2.13" stroke-linecap="round" stroke-linejoin="round"/>
<path fill-rule="evenodd" clip-rule="evenodd" d="M116.719 289.4L101.97 289.731L73.7312 289.334L76.4822 274.881L89.0437 274.551C89.0437 274.551 88.6128 271.243 91.8941 271.376C94.413 271.475 101.837 279.148 108.698 281.264C118.111 284.175 116.719 289.4 116.719 289.4Z" fill="#F3A13B"/>
<path fill-rule="evenodd" clip-rule="evenodd" d="M116.553 287.515L84.6357 287.35C83.7076 287.35 82.9785 288.011 82.9453 288.838V289.367C82.9453 290.194 83.6745 290.855 84.6025 290.855L116.52 291.021C117.448 291.021 118.177 290.359 118.21 289.533V289.003C118.21 288.177 117.481 287.515 116.553 287.515Z" fill="#1C2628" stroke="#1C2628" stroke-width="2.13" stroke-linecap="round" stroke-linejoin="round"/>
<path fill-rule="evenodd" clip-rule="evenodd" d="M87.3202 290.888L72.2397 290.657L73.1678 282.753C73.1678 282.753 80.824 282.323 83.4424 284.77C86.0939 287.284 87.3202 290.888 87.3202 290.888Z" fill="#1C2628" stroke="#1C2628" stroke-width="2.13" stroke-linecap="round" stroke-linejoin="round"/>
<path fill-rule="evenodd" clip-rule="evenodd" d="M110.19 281.727L92.4908 270.913C92.4908 270.913 89.6736 271.343 88.9444 272.5C88.2152 273.625 89.5079 275.444 89.5079 275.444C89.5079 275.444 99.6168 282.19 103.925 283.546C106.942 284.505 110.19 281.727 110.19 281.727Z" fill="#1C2628" stroke="#1C2628" stroke-width="2.13" stroke-linecap="round" stroke-linejoin="round"/>
<path d="M94.2805 277.461L88.1157 288.904" stroke="#1C2628" stroke-width="2.13" stroke-linecap="round" stroke-linejoin="round"/>
<path d="M76.4822 274.881L74.9907 285.365" stroke="#1C2628" stroke-width="2.13" stroke-linecap="round" stroke-linejoin="round"/>
<path d="M172.931 139.88C161.629 156.317 146.35 173.779 120.762 187.504C95.1754 201.229 59.1148 211.184 43.1725 196.864C27.1971 182.709 31.5721 144.08 34.3894 114.15C37.2066 84.3843 38.6649 63.3503 47.4481 45.8881C56.2312 28.6243 72.2066 14.8992 88.8449 13.444C105.284 11.9558 122.353 22.9358 148.935 23.1673C175.549 23.3988 211.676 12.8818 221.653 22.6712C231.629 32.4607 215.289 62.5565 203.49 85.2111C191.724 107.833 184.233 123.41 172.931 139.88Z" fill="#F3A13B"/>
<path fill-rule="evenodd" clip-rule="evenodd" d="M224.006 20.2239C221.719 17.9419 201.402 32.3945 201.402 32.3945C201.402 32.3945 188.641 68.6088 185.492 75.6863C182.311 82.8299 170.777 101.615 170.777 101.615C170.777 101.615 147.476 100.094 136.439 109.751C129.976 115.406 122.42 136.308 122.42 136.308C122.42 136.308 111.946 138.226 106.113 132.902C102.765 129.859 99.1193 120.962 96.733 116.828C94.9432 113.786 93.9489 114.91 93.9489 114.91L96.4347 131.314L90.4688 130.057L97.0644 140.641C97.0644 140.641 119.039 159.69 127.689 154.002C136.34 148.313 143.035 138.226 143.035 138.226L143.068 162.402L183.802 148.942L184.266 122.715C184.266 122.715 198.319 100.722 204.716 77.4391C207.732 66.393 211.212 43.9699 211.212 43.9699C211.212 43.9699 224.569 39.8027 226.226 29.7157C227.287 23.2004 226.757 22.9689 224.006 20.2239Z" fill="#F45B49" stroke="#1C2628" stroke-width="2.13" stroke-linecap="round" stroke-linejoin="round"/>
<path d="M222.812 23.4319C221.487 22.7374 219.995 22.6051 218.703 22.9027C217.94 23.0681 217.277 23.3657 216.714 23.7295C216.681 23.3988 216.615 23.0681 216.581 22.7043C216.515 22.0429 216.449 21.3814 216.383 20.72C217.012 20.1577 217.609 19.5955 218.172 18.934C219.531 17.4127 220.526 15.5607 220.824 13.5102C221.122 11.4928 221.354 9.44227 220.791 7.59021C220.658 7.09413 220.492 6.79647 220.194 6.1681C220.095 5.93659 219.896 5.50665 219.631 5.14285C219.366 4.77906 218.868 4.48141 218.305 4.51448C217.211 4.64677 216.681 5.27514 216.316 5.73816C216.151 6.00274 216.018 6.23424 215.885 6.49882C215.819 6.63111 215.786 6.73033 215.72 6.82955L215.687 6.89569C215.653 6.96184 215.653 6.96183 215.653 7.02798L215.587 7.22642C215.256 8.25166 215.256 9.21076 215.289 10.1368C215.289 11.0297 215.322 11.9227 215.322 12.8157C215.289 14.2047 215.355 15.5937 215.421 16.9497C214.924 17.5119 214.427 18.0411 213.864 18.5372L212.869 19.4301C212.538 19.7278 212.173 20.0585 211.809 20.4223C210.417 21.8444 209.223 23.498 208.494 25.4162C207.732 27.3014 207.666 29.6164 208.561 31.5016C209.422 33.3867 211.013 34.7096 212.704 35.4702C214.361 36.1978 216.084 36.4955 217.775 36.4624C217.907 37.3554 218.007 38.1822 218.106 39.009C218.537 41.1587 217.708 43.0108 216.349 43.6061C215.355 44.0029 214.427 43.7383 213.83 43.3084C213.897 43.3084 213.963 43.3415 214.029 43.3415C215.024 43.4076 215.885 42.68 215.952 41.6879C216.018 40.6957 215.289 39.8689 214.295 39.7697C213.3 39.7035 212.472 40.4311 212.372 41.4233C212.372 41.4894 212.372 41.5886 212.372 41.6548C212.405 42.0186 212.538 42.3824 212.77 42.647C212.836 42.7462 212.869 42.8123 212.969 42.9115C213.234 43.2753 213.665 43.6722 214.295 43.9368C214.924 44.2014 215.687 44.3337 216.548 44.1021C217.41 43.8706 218.239 43.1761 218.669 42.1839C218.868 41.6879 219.034 41.1587 219.067 40.5965C219.067 40.0012 219.034 39.472 218.968 38.9098C218.868 38.116 218.769 37.2892 218.636 36.4294C220.128 36.2971 221.586 35.8671 222.879 35.2057C224.337 34.3789 225.497 33.056 225.961 31.5016C226.491 29.9472 226.392 28.2935 225.829 26.8384C225.232 25.3832 224.171 24.1264 222.812 23.4319ZM217.012 9.07847C217.311 8.38395 217.907 6.46575 219.001 6.86262C219.697 7.1272 219.73 8.05322 219.697 8.6816C219.598 10.1037 219.2 11.5258 218.438 12.7495C217.708 13.9401 216.979 15.0315 216.151 16.1229C216.117 15.0646 216.117 13.9732 216.184 12.9149C216.25 11.592 216.548 10.2691 217.012 9.07847ZM213.4 34.1804C212.041 33.3867 210.881 32.1961 210.384 30.774C209.886 29.3519 210.085 27.8305 210.781 26.4084C211.51 25.0194 212.67 23.7957 213.93 22.7043C214.228 22.4397 214.56 22.1751 214.924 21.9106L215.455 21.5137C215.587 21.4145 215.72 21.3153 215.819 21.216C215.885 21.7452 215.919 22.2744 215.985 22.7704C216.051 23.2335 216.084 23.6634 216.151 24.1264C215.057 24.9863 214.328 26.1438 214.029 27.1691C213.532 28.9219 213.83 30.2779 214.129 31.1047C214.261 31.5346 214.427 31.8323 214.526 32.0307C214.626 32.2292 214.692 32.3284 214.692 32.3284C214.692 32.3284 214.593 31.8654 214.56 31.0055C214.527 30.1787 214.56 28.9219 215.223 27.6321C215.488 27.1029 215.885 26.5738 216.383 26.1438C216.615 28.029 216.88 29.8479 217.112 31.5677C217.277 32.8906 217.476 34.1804 217.642 35.4041C216.151 35.338 214.692 34.9411 213.4 34.1804ZM224.967 31.237C224.702 32.5599 223.774 33.8166 222.448 34.4781C221.288 35.1065 219.896 35.4041 218.471 35.4372C218.272 34.1804 218.073 32.8575 217.841 31.4685C217.543 29.6495 217.244 27.6982 216.979 25.6808C217.576 25.284 218.272 24.9532 219.1 24.8209C220.923 24.5564 223.078 25.3832 224.271 27.4998C224.867 28.5581 225.199 29.9141 224.967 31.237Z" fill="#1C2628" stroke="#1C2628" stroke-width="2.13" stroke-linecap="round" stroke-linejoin="round"/>
<path fill-rule="evenodd" clip-rule="evenodd" d="M229.408 19.7609L229.143 19.1325C228.745 18.1734 227.651 17.7104 226.69 18.1072L221.089 20.2569C220.128 20.6207 219.664 21.6791 220.061 22.6382L220.293 23.2665C220.691 24.2256 221.785 24.6886 222.746 24.2918L228.347 22.1421C229.342 21.7452 229.806 20.6869 229.408 19.7609Z" fill="#F45B49" stroke="#1C2628" stroke-width="2.13" stroke-linecap="round" stroke-linejoin="round"/>
<path fill-rule="evenodd" clip-rule="evenodd" d="M229.441 24.1264L229.176 23.4981C228.778 22.539 227.685 22.0759 226.723 22.4728L221.122 24.6225C220.161 24.9863 219.697 26.0446 220.095 27.0037L220.36 27.6321C220.758 28.5912 221.851 29.0542 222.812 28.6574L228.414 26.5076C229.375 26.1438 229.839 25.0855 229.441 24.1264Z" fill="#F45B49" stroke="#1C2628" stroke-width="2.13" stroke-linecap="round" stroke-linejoin="round"/>
<path fill-rule="evenodd" clip-rule="evenodd" d="M229.243 28.955L228.977 28.3266C228.58 27.3675 227.486 26.9045 226.525 27.3014L220.923 29.4511C219.962 29.8149 219.498 30.8732 219.896 31.8323L220.161 32.4607C220.559 33.4198 221.653 33.8828 222.614 33.4859L228.215 31.3362C229.143 30.9724 229.607 29.9141 229.243 28.955Z" fill="#F45B49" stroke="#1C2628" stroke-width="2.13" stroke-linecap="round" stroke-linejoin="round"/>
<path fill-rule="evenodd" clip-rule="evenodd" d="M209.588 40.0343C209.92 37.7192 210.251 33.056 208.594 31.2039C206.937 29.3519 212.704 24.9863 211.08 22.9689C208.395 19.6617 201.965 32.3615 201.965 32.3615" fill="#F45B49"/>
<path d="M209.588 40.0343C209.92 37.7192 210.251 33.056 208.594 31.2039C206.937 29.3519 212.704 24.9863 211.08 22.9689C208.395 19.6617 201.965 32.3615 201.965 32.3615" stroke="#1C2628" stroke-width="2.13" stroke-linecap="round" stroke-linejoin="round"/>
<path fill-rule="evenodd" clip-rule="evenodd" d="M147.112 83.9544C143.897 73.5697 148.139 65.5661 162.988 67.4513C164.711 67.6828 166.766 67.8812 168.324 68.7742C175.35 72.8752 174.025 77.6376 174.886 78.5967C177.405 81.474 178.598 92.5532 179.659 95.662L144.858 95.2982L147.112 83.9544Z" fill="#1C2628" stroke="#1C2628" stroke-width="2.13" stroke-linecap="round" stroke-linejoin="round"/>
<path fill-rule="evenodd" clip-rule="evenodd" d="M156.061 234.368C156.061 234.368 161.563 261.785 166.402 276.767C169.882 287.548 171.605 291.748 163.22 292.608C154.801 293.468 145.885 292.211 145.885 292.211L130.54 293.865C130.54 293.865 124.707 293.667 130.672 289.566C136.572 285.498 146.217 284.671 148.802 279.313C151.354 273.889 134.915 243.595 134.915 243.595L156.061 234.368Z" fill="#F45B49" stroke="#1C2628" stroke-width="2.13" stroke-linecap="round" stroke-linejoin="round"/>
<path fill-rule="evenodd" clip-rule="evenodd" d="M248.101 160.153C248.101 160.153 260.729 147.387 267.822 137.962C273.523 130.355 274.186 127.445 280.45 130.421C286.184 133.133 308.788 123.178 310.412 128.172C312.268 133.894 290.658 140.905 276.705 150.728C266.297 158.037 262.718 169.447 262.718 169.447L248.101 160.153Z" fill="#F45B49" stroke="#1C2628" stroke-width="2.13" stroke-linecap="round" stroke-linejoin="round"/>
<path fill-rule="evenodd" clip-rule="evenodd" d="M8.80216 213.4C6.81352 214.888 4.36087 216.542 3.03511 218.758C2.90253 218.956 0.748179 220.973 1.51049 221.271C4.42716 222.429 8.76901 217.236 10.7245 215.913C11.52 215.384 12.2491 214.723 13.0446 214.194C13.376 213.962 14.1715 213.102 14.0389 213.499C13.4092 215.384 10.4594 216.773 9.26617 218.361C7.01238 221.37 10.9897 219.816 12.216 218.758C12.8126 218.261 13.4423 217.832 14.0389 217.335C14.8344 216.707 15.5304 215.979 16.2595 215.318C17.4527 214.227 18.7453 213.268 20.1042 212.375" fill="#F45B49"/>
<path d="M8.80216 213.4C6.81352 214.888 4.36087 216.542 3.03511 218.758C2.90253 218.956 0.748179 220.973 1.51049 221.271C4.42716 222.429 8.76901 217.236 10.7245 215.913C11.52 215.384 12.2491 214.723 13.0446 214.194C13.376 213.962 14.1715 213.102 14.0389 213.499C13.4092 215.384 10.4594 216.773 9.26617 218.361C7.01238 221.37 10.9897 219.816 12.216 218.758C12.8126 218.261 13.4423 217.832 14.0389 217.335C14.8344 216.707 15.5304 215.979 16.2595 215.318C17.4527 214.227 18.7453 213.268 20.1042 212.375" stroke="#1C2628" stroke-width="2.13" stroke-linecap="round" stroke-linejoin="round"/>
<path fill-rule="evenodd" clip-rule="evenodd" d="M56.9935 72.0814C57.0598 68.3773 51.0939 66.5914 46.056 69.3364C41.0181 72.0814 40.7198 80.0849 39.8249 81.7716C34.8533 91.2303 42.3107 98.7378 53.7454 100.16C57.0598 100.557 67.931 96.1581 67.5001 92.0902C67.0692 87.9892 54.9054 90.0066 54.0437 86.2695" fill="#1C2628"/>
<path d="M56.9935 72.0814C57.0598 68.3773 51.0939 66.5914 46.056 69.3364C41.0181 72.0814 40.7198 80.0849 39.8249 81.7716C34.8533 91.2303 42.3107 98.7378 53.7454 100.16C57.0598 100.557 67.931 96.1581 67.5001 92.0902C67.0692 87.9892 54.9054 90.0066 54.0437 86.2695" stroke="#1C2628" stroke-width="2.13" stroke-linecap="round" stroke-linejoin="round"/>
<path fill-rule="evenodd" clip-rule="evenodd" d="M38.1014 172.225C38.1014 172.225 34.9196 208.207 31.7709 212.011C30.0474 214.094 7.4764 215.285 7.4764 215.285C7.4764 215.285 9.73019 216.972 9.82962 218.328C9.92905 219.684 9.00102 220.147 9.00102 220.147C9.00102 220.147 2.93568 218.394 2.20652 216.542C1.7425 215.351 6.78038 211.448 9.03417 210.126C14.8344 206.752 20.6345 206.62 21.9603 202.982C23.2861 199.344 26.2359 169.976 26.2359 169.976L38.1014 172.225Z" fill="#F45B49" stroke="#1C2628" stroke-width="2.13" stroke-linecap="round" stroke-linejoin="round"/>
<path fill-rule="evenodd" clip-rule="evenodd" d="M59.5125 269.656C59.5125 269.656 46.5863 291.947 48.0778 295.783L85.2653 296.842L69.8202 285.597L76.3165 271.839L59.5125 269.656Z" fill="#F45B49" stroke="#1C2628" stroke-width="2.13" stroke-linecap="round" stroke-linejoin="round"/>
<path fill-rule="evenodd" clip-rule="evenodd" d="M165.341 90.9658L165.208 100.094L167.529 102.773C167.529 102.773 168.655 111.868 165.043 113.984C161.099 116.332 152.216 111.735 149.2 110.975C146.482 110.28 150.824 104.592 150.824 104.592L151.122 94.1076L150.857 90.0397L165.341 90.9658Z" fill="#F45B49" stroke="#1C2628" stroke-width="2.13" stroke-linecap="round" stroke-linejoin="round"/>
<path fill-rule="evenodd" clip-rule="evenodd" d="M167.197 85.5419C167.827 83.2599 167.595 78.6959 167.031 76.6123C166.004 72.8421 164.943 74.4957 161.099 73.4374C156.823 72.2468 154.735 70.5601 151.951 73.9665C150.857 75.2894 147.642 80.2503 147.145 82.0362C145.388 88.4192 148.769 94.9344 154.702 96.5881C158.513 97.6464 161.629 97.3157 164.413 94.6037C166.037 93.1155 166.567 87.8239 167.197 85.5419Z" fill="#F45B49" stroke="#1C2628" stroke-width="2.13" stroke-linecap="round" stroke-linejoin="round"/>
<path fill-rule="evenodd" clip-rule="evenodd" d="M158.58 84.9466C158.878 84.0536 158.049 82.9953 156.757 82.5654C155.464 82.1354 154.171 82.4992 153.873 83.3922C153.575 84.2851 154.403 85.3435 155.696 85.7734C157.022 86.2033 158.281 85.8395 158.58 84.9466Z" fill="#FAFCFF" stroke="#1C2628" stroke-width="2.13" stroke-linecap="round" stroke-linejoin="round"/>
<path fill-rule="evenodd" clip-rule="evenodd" d="M150.857 81.4078C151.155 80.5149 150.327 79.4566 149.034 79.0266C147.742 78.5967 146.449 78.9605 146.151 79.8534C145.852 80.7464 146.681 81.8047 147.974 82.2347C149.299 82.6646 150.559 82.2677 150.857 81.4078Z" fill="#FAFCFF" stroke="#1C2628" stroke-width="2.13" stroke-linecap="round" stroke-linejoin="round"/>
<path fill-rule="evenodd" clip-rule="evenodd" d="M164.015 101.152L164.943 91.8256C164.943 91.8256 157.42 90.172 155.597 92.1233C153.807 94.0746 155.696 100.491 155.696 100.491L160.237 101.185" fill="#FB564C"/>
<path fill-rule="evenodd" clip-rule="evenodd" d="M171.738 84.5828C169.948 87.7577 166.932 80.6141 166.932 80.6141L154.768 77.7368L153.906 71.5522L151.056 78.4644L146.714 78.3652C146.714 78.3652 150.161 69.7663 151.023 68.9395C154.569 65.5661 160.601 65.7315 164.512 68.9726C167.794 71.6845 175.45 78.0344 171.738 84.5828Z" fill="#1C2628" stroke="#1C2628" stroke-width="2.13" stroke-linecap="round" stroke-linejoin="round"/>
<path fill-rule="evenodd" clip-rule="evenodd" d="M166.004 86.2033C166.866 85.1781 168.556 86.2033 168.887 87.1955C169.55 89.246 167.993 92.7186 164.778 90.635" fill="#F45B49"/>
<path d="M166.004 86.2033C166.866 85.1781 168.556 86.2033 168.887 87.1955C169.55 89.246 167.993 92.7186 164.778 90.635" stroke="#1C2628" stroke-width="2.13" stroke-linecap="round" stroke-linejoin="round"/>
<path fill-rule="evenodd" clip-rule="evenodd" d="M154.536 85.3104C155.166 85.7073 155.928 85.608 156.26 85.112C156.591 84.6159 156.326 83.8883 155.696 83.4914C155.066 83.0945 154.304 83.1938 153.973 83.6898C153.641 84.1859 153.906 84.9135 154.536 85.3104Z" fill="#1C2628" stroke="#1C2628" stroke-width="2.13" stroke-linecap="round" stroke-linejoin="round"/>
<path fill-rule="evenodd" clip-rule="evenodd" d="M148.437 81.507C148.835 80.8787 148.736 79.8865 147.079 79.5888C146.482 79.4896 146.548 79.7873 146.117 80.3826C145.72 81.011 146.25 81.6724 146.747 82.0031C147.277 82.3338 148.04 82.1354 148.437 81.507Z" fill="#1C2628" stroke="#1C2628" stroke-width="2.13" stroke-linecap="round" stroke-linejoin="round"/>
<path fill-rule="evenodd" clip-rule="evenodd" d="M117.813 180.096C113.636 182.014 113.67 174.242 116.487 172.39C121.69 168.984 126.795 175.995 117.813 180.096Z" fill="#FAF6EB"/>
<path d="M166.866 88.2208C166.799 88.2869 166.733 88.353 166.7 88.4523" stroke="#1C2628" stroke-width="2.13" stroke-linecap="round" stroke-linejoin="round"/>
<path fill-rule="evenodd" clip-rule="evenodd" d="M280.483 154.266C280.483 154.266 280.118 154.829 279.456 155.821C274.849 162.799 255.426 190.679 237.064 194.978C232.921 195.938 227.917 195.938 222.547 195.342C200.838 192.862 173.13 180.261 172.699 180.063L152.912 208.108L167.296 249.416L160.237 250.474L135.843 254.178C135.843 254.178 116.255 220.411 116.984 212.077C118.144 198.583 142.604 154.597 142.604 154.597L164.546 148.545L185.36 142.79L206.638 153.142L207.832 153.704L235.208 162.865L261.492 137.565L280.483 154.266Z" fill="#FAF6EB" stroke="#1C2628" stroke-width="2.13" stroke-linecap="round" stroke-linejoin="round"/>
<path fill-rule="evenodd" clip-rule="evenodd" d="M191.226 135.812C191.226 135.812 180.653 137.796 175.814 138.722C172.268 139.384 168.258 142.327 159.773 144.609C159.209 144.775 158.613 144.907 158.016 145.072C154.138 146.031 142.372 148.049 142.372 148.049L141.444 133.927L139.588 128.9C138.726 126.552 138.726 124.005 139.555 121.657L143.499 110.743L146.117 103.434L150.758 102.078L149.763 109.982L163.551 109.949L166.932 101.218L171.307 100.755L171.539 104.393C171.87 109.42 174.489 114.05 178.598 116.961L184.465 121.095L185.492 123.311L191.226 135.812Z" fill="#FAF6EB" stroke="#1C2628" stroke-width="2.13" stroke-linecap="round" stroke-linejoin="round"/>
<path fill-rule="evenodd" clip-rule="evenodd" d="M128.021 219.419C124.839 231.523 108.499 264.695 108.499 264.695L88.3808 262.777L83.4092 270.053L53.3808 269.259L57.2586 260.925L75.8524 220.874L49.2378 186.28L50.3647 168.95L50.431 167.826L68.7264 166.04L90.0711 162.7C90.0711 162.667 131.203 207.314 128.021 219.419Z" fill="#47584E" stroke="#1C2628" stroke-width="2.13" stroke-linecap="round" stroke-linejoin="round"/>
<path fill-rule="evenodd" clip-rule="evenodd" d="M84.6024 223.189C84.0721 227.852 82.3487 227.356 78.8354 237.245C75.9187 245.381 76.9793 246.075 74.6924 249.449C70.8808 255.071 65.0144 257.651 62.2303 258.907C60.1422 259.833 58.5513 260.528 57.2918 260.925L75.8856 220.874L49.271 186.28L50.3979 168.951C53.7786 169.38 57.7558 170.207 62.4954 171.464C68.2625 179.203 69.1574 185.156 68.7265 189.323C68.3951 192.564 67.2682 194.747 68.4945 197.624C70.218 201.725 74.2284 201.229 78.4377 204.999C83.6081 209.729 85.2322 217.633 84.6024 223.189Z" fill="#1C2628" stroke="#1C2628" stroke-width="2.13" stroke-linecap="round" stroke-linejoin="round"/>
<path fill-rule="evenodd" clip-rule="evenodd" d="M85.696 266.746C87.3532 273.691 81.0559 274.022 81.0559 274.022L56.2973 273.757C54.1098 273.757 52.3201 271.971 52.3201 269.788C52.3201 267.605 54.1098 265.82 56.2973 265.82" fill="#47584E"/>
<path d="M85.696 266.746C87.3532 273.691 81.0559 274.022 81.0559 274.022L56.2973 273.757C54.1098 273.757 52.3201 271.971 52.3201 269.788C52.3201 267.605 54.1098 265.82 56.2973 265.82" stroke="#1C2628" stroke-width="2.13" stroke-linecap="round" stroke-linejoin="round"/>
<path fill-rule="evenodd" clip-rule="evenodd" d="M106.941 258.874C108.93 258.874 110.554 260.495 110.554 262.479C110.554 264.464 108.93 266.084 106.941 266.084H90.038C88.0494 266.084 88.3477 262.744 88.3477 262.744" fill="#47584E"/>
<path d="M106.941 258.874C108.93 258.874 110.554 260.495 110.554 262.479C110.554 264.464 108.93 266.084 106.941 266.084H90.038C88.0494 266.084 88.3477 262.744 88.3477 262.744" stroke="#1C2628" stroke-width="2.13" stroke-linecap="round" stroke-linejoin="round"/>
<path fill-rule="evenodd" clip-rule="evenodd" d="M45.6912 177.814L45.7244 178.078L45.3267 187.273L85.1657 178.806L85.9611 169.943C83.1108 170.637 78.0397 169.943 69.8532 171.431C59.3134 173.349 56.3967 177.615 45.6912 177.814Z" fill="#F3A140" stroke="#1C2628" stroke-width="2.13" stroke-linecap="round" stroke-linejoin="round"/>
<path fill-rule="evenodd" clip-rule="evenodd" d="M86.3589 169.877L89.1761 176.723L102.202 171.596L101.373 165.412C96.5009 167.198 91.5293 168.587 86.3589 169.877Z" fill="#F3A140" stroke="#1C2628" stroke-width="2.13" stroke-linecap="round" stroke-linejoin="round"/>
<path fill-rule="evenodd" clip-rule="evenodd" d="M99.9149 154.266L98.3903 142.592L97.7937 138.061L96.4348 127.709L94.8438 115.77C94.8438 115.77 101.34 103.996 104.091 88.0554C104.986 82.9292 105.35 76.5131 105.45 70.1632C105.483 68.4765 105.483 66.7898 105.45 65.1362C105.384 53.7262 104.588 43.7714 104.588 43.7714L85.3647 44.7305C85.3647 44.7305 85.3647 60.6053 82.7795 74.0988C80.1942 87.5593 76.1175 98.6055 76.1175 98.6055L69.8865 103.996L54.3088 107.502C54.3088 107.502 33.627 111.603 30.4452 121.293C28.9206 125.89 27.6611 131.711 26.6336 137.432C26.4348 138.524 26.269 139.582 26.1033 140.641C25.5067 144.212 25.0427 147.652 24.6781 150.562C24.5124 151.753 24.3798 152.844 24.2804 153.836C23.8827 157.111 23.6838 159.194 23.6838 159.194L17.519 196.599L38.3997 197.856L42.377 173.382L44.4319 158.202L45.7245 177.913C56.43 177.715 61.9319 172.125 72.6043 171.596C81.3543 171.166 83.0778 170.769 85.9613 170.075C85.9613 170.075 96.5342 167.297 101.406 165.478L99.9149 154.266Z" fill="#FAF6EB" stroke="#1C2628" stroke-width="2.13" stroke-linecap="round" stroke-linejoin="round"/>
<path d="M86.2929 99.1677L81.9841 96.3896L82.415 101.483L78.4377 104.724L83.4425 105.914L85.2985 110.677L87.9501 106.311L93.0874 106.014L89.7398 102.144L91.0324 97.1834L86.2929 99.1677Z" fill="#49574E"/>
<path d="M105.45 70.1632L104.389 69.9648L103.992 70.2955L101.804 72.1145L101.638 68.7742L98.7881 66.9882L101.937 65.7976L102.732 62.5565L104.489 64.7724L104.82 65.1693L105.417 65.1362C105.483 66.7898 105.483 68.4765 105.45 70.1632Z" fill="#49574E"/>
<path d="M99.9149 154.266C99.5172 154.332 99.0531 154.266 98.7217 154.002L92.2255 149.504L87.055 151.455L84.8344 152.315C84.2709 152.514 83.6081 152.414 83.1772 151.984C82.7132 151.554 82.5475 150.926 82.7463 150.364L85.0333 142.79L80.0948 136.639C79.8628 136.341 79.7302 135.977 79.7302 135.647C79.7302 135.415 79.7634 135.184 79.8628 134.985C80.1279 134.423 80.6583 134.059 81.288 134.059L89.2094 133.894L93.5513 127.312C93.8827 126.816 94.4793 126.519 95.0759 126.585C95.6725 126.651 96.2028 127.081 96.4016 127.643L96.4348 127.742L97.7937 138.094L97.3297 137.962C96.8325 137.829 96.4016 137.432 96.2359 136.936L95.2084 134.059L94.413 131.777L91.3969 136.374C91.0986 136.804 90.6014 137.102 90.0711 137.102L84.5692 137.201L88.0162 141.5C88.3476 141.897 88.4471 142.459 88.3145 142.956L86.7236 148.214L89.0105 147.354L91.8941 146.263C92.3912 146.064 92.9547 146.131 93.3855 146.461L97.8931 149.603L97.628 144.113C97.628 143.849 97.6611 143.584 97.7605 143.352C97.86 143.121 98.0257 142.923 98.2577 142.757L98.3903 142.658L99.9149 154.266Z" fill="#49574E"/>
<path d="M61.7331 157.937L56.9935 159.922L52.6848 157.144L53.1157 162.237L49.1384 165.511L53.2483 166.47L54.1432 166.668L55.9992 171.464L58.6839 167.065L63.788 166.768L60.4405 162.898L60.6725 162.005L61.7331 157.937Z" fill="#49574E"/>
<path d="M51.8231 121.293L49.0059 119.474L49.271 122.814L46.6858 124.931L49.9339 125.692L51.1602 128.834L52.9169 125.956L56.2644 125.758L54.0769 123.211L54.9055 119.97L51.8231 121.293Z" fill="#49574E"/>
<path d="M34.3562 140.012L29.5172 146.263L31.9367 153.77C32.1356 154.366 31.9699 154.994 31.539 155.424C31.1081 155.854 30.4452 155.986 29.8818 155.788L24.2473 153.77C24.3799 152.778 24.5125 151.687 24.645 150.496L27.8931 151.654L26.2028 146.428C26.0371 145.932 26.1365 145.37 26.468 144.973L29.8155 140.641H26.0702C26.236 139.582 26.4348 138.524 26.6005 137.432H33.0636C33.6602 137.432 34.2236 137.796 34.4888 138.325C34.7871 138.855 34.7208 139.516 34.3562 140.012Z" fill="#49574E"/>
<path fill-rule="evenodd" clip-rule="evenodd" d="M55.9659 92.5202L55.3362 106.179C55.3362 106.179 64.8485 107.469 67.6326 106.278C70.4167 105.088 74.7585 102.872 74.7585 102.872L69.2566 89.8744L55.9659 92.5202Z" fill="#F45B49" stroke="#1C2628" stroke-width="2.13" stroke-linecap="round" stroke-linejoin="round"/>
<path d="M87.9499 178.277C87.9499 178.277 115.26 213.168 113.835 219.816C112.41 226.463 85.6298 266.812 85.6298 266.812L62.7605 266.084" stroke="#1C2628" stroke-width="2.13" stroke-linecap="round" stroke-linejoin="round"/>
<path fill-rule="evenodd" clip-rule="evenodd" d="M67.4008 110.809L63.092 113.62L67.1687 115.109L67.4008 110.809Z" fill="#1C2628" stroke="#1C2628" stroke-width="2.13" stroke-linecap="round" stroke-linejoin="round"/>
<path fill-rule="evenodd" clip-rule="evenodd" d="M67.6327 106.245L55.1705 102.343L53.6459 106.774C53.0825 108.428 53.9442 110.247 55.6014 110.842L63.0919 113.587L67.4007 110.809L67.6327 106.245Z" fill="#FAF6EB" stroke="#1C2628" stroke-width="2.13" stroke-linecap="round" stroke-linejoin="round"/>
<path fill-rule="evenodd" clip-rule="evenodd" d="M70.8477 114.249L74.1953 110.941L69.522 110.445L70.8477 114.249Z" fill="#1C2628" stroke="#1C2628" stroke-width="2.13" stroke-linecap="round" stroke-linejoin="round"/>
<path fill-rule="evenodd" clip-rule="evenodd" d="M74.2946 100.094L67.9641 106.014L69.4887 110.412L74.1952 110.941L76.8467 108.362C78.073 107.171 78.2387 105.22 77.1781 103.864L74.2946 100.094Z" fill="#FAF6EB" stroke="#1C2628" stroke-width="2.13" stroke-linecap="round" stroke-linejoin="round"/>
<path d="M40.9187 129.363C40.9187 129.363 42.7416 132.802 44.3325 143.352C44.896 147.023 44.432 166.999 44.432 166.999" stroke="#1C2628" stroke-width="2.13" stroke-linecap="round" stroke-linejoin="round"/>
<path fill-rule="evenodd" clip-rule="evenodd" d="M55.6678 96.1251C48.7738 93.9754 44.7966 87.0632 46.7852 80.6802C47.7795 77.5053 46.9841 73.5366 49.8676 72.1476C52.7843 70.7585 59.4131 71.9491 62.86 73.0074C69.754 75.1572 73.7312 82.0693 71.7426 88.4523C70.6488 91.9249 69.3894 95.2321 66.1413 96.555C63.3903 97.6464 58.8165 97.1172 55.6678 96.1251Z" fill="#F45B49" stroke="#1C2628" stroke-width="2.13" stroke-linecap="round" stroke-linejoin="round"/>
<path fill-rule="evenodd" clip-rule="evenodd" d="M59.7112 75.1241C62.0975 74.5288 67.0691 72.2137 67.8977 73.3712C68.9915 74.8925 65.8097 77.3399 65.3125 77.4722" fill="#F45B49"/>
<path d="M59.7112 75.1241C62.0975 74.5288 67.0691 72.2137 67.8977 73.3712C68.9915 74.8925 65.8097 77.3399 65.3125 77.4722" stroke="#1C2628" stroke-width="2.13" stroke-linecap="round" stroke-linejoin="round"/>
<path fill-rule="evenodd" clip-rule="evenodd" d="M65.0142 88.0223C63.125 89.0476 60.9375 86.5341 60.9375 86.5341L65.8428 82.863C65.8759 82.8299 68.5606 86.1041 65.0142 88.0223Z" fill="#1C2628" stroke="#1C2628" stroke-width="2.13" stroke-linecap="round" stroke-linejoin="round"/>
<path fill-rule="evenodd" clip-rule="evenodd" d="M54.806 83.9875C53.9443 83.4253 53.9111 81.9701 54.7397 80.7464C55.5352 79.4896 56.8941 78.9274 57.7558 79.4896C58.6176 80.0519 58.6507 81.5071 57.8221 82.7307C56.9935 83.9875 55.6677 84.5497 54.806 83.9875Z" fill="#FAFCFF" stroke="#1C2628" stroke-width="2.13" stroke-linecap="round" stroke-linejoin="round"/>
<path fill-rule="evenodd" clip-rule="evenodd" d="M59.181 75.0249C58.3856 74.5288 58.253 73.3382 58.9159 72.346C59.5788 71.3869 60.7388 70.99 61.5674 71.5192C62.3629 72.0153 62.4954 73.2059 61.8325 74.198C61.1697 75.1571 59.9765 75.5209 59.181 75.0249Z" fill="#FAFCFF" stroke="#1C2628" stroke-width="2.13" stroke-linecap="round" stroke-linejoin="round"/>
<path fill-rule="evenodd" clip-rule="evenodd" d="M56.1979 98.5393L55.7339 93.5785C55.7339 93.5785 61.3684 89.3783 63.7547 90.9988C66.1411 92.6525 65.6771 99.8622 65.6771 99.8622L61.0369 101.681" fill="#FB564C"/>
<path fill-rule="evenodd" clip-rule="evenodd" d="M49.967 69.9978C51.0607 69.4025 48.4423 68.6419 49.7681 68.8072C54.0105 69.2702 54.11 72.8421 52.7842 75.6863C51.5247 78.3982 49.5029 80.7464 49.5029 80.7464C49.5029 80.7464 55.1706 88.8822 51.6905 92.4209C49.4035 94.736 45.3268 94.3061 44.0011 91.561C42.9073 89.3121 42.841 86.8317 43.2056 84.4174C43.5702 81.937 44.9622 79.5888 45.2274 77.1415" fill="#1C2628"/>
<path d="M49.967 69.9978C51.0607 69.4025 48.4423 68.6419 49.7681 68.8072C54.0105 69.2702 54.11 72.8421 52.7842 75.6863C51.5247 78.3982 49.5029 80.7464 49.5029 80.7464C49.5029 80.7464 55.1706 88.8822 51.6905 92.4209C49.4035 94.736 45.3268 94.3061 44.0011 91.561C42.9073 89.3121 42.841 86.8317 43.2056 84.4174C43.5702 81.937 44.9622 79.5888 45.2274 77.1415" stroke="#1C2628" stroke-width="2.13" stroke-linecap="round" stroke-linejoin="round"/>
<path fill-rule="evenodd" clip-rule="evenodd" d="M45.8902 75.4879C35.8476 73.5366 34.3562 81.3086 38.8637 83.9875C33.395 85.3104 32.8978 95.7613 42.3107 95.629C41.0181 96.7865 46.9177 102.409 49.1384 94.1407" fill="#1C2628"/>
<path d="M45.8902 75.4879C35.8476 73.5366 34.3562 81.3086 38.8637 83.9875C33.395 85.3104 32.8978 95.7613 42.3107 95.629C41.0181 96.7865 46.9177 102.409 49.1384 94.1407" stroke="#1C2628" stroke-width="2.13" stroke-linecap="round" stroke-linejoin="round"/>
<path fill-rule="evenodd" clip-rule="evenodd" d="M52.2539 91.7264C52.4859 91.3957 50.2321 92.2225 51.5247 95.0336C52.4196 97.018 57.2917 97.6133 57.1923 94.0084" fill="#F45B49"/>
<path d="M52.2539 91.7264C52.4859 91.3957 50.2321 92.2225 51.5247 95.0336C52.4196 97.018 57.2917 97.6133 57.1923 94.0084" stroke="#1C2628" stroke-width="2.13" stroke-linecap="round" stroke-linejoin="round"/>
<path d="M53.5134 94.1738L53.8117 94.2068H54.3089L54.8723 94.0084" stroke="#1C2628" stroke-width="2.13" stroke-linecap="round" stroke-linejoin="round"/>
<path fill-rule="evenodd" clip-rule="evenodd" d="M57.4905 79.8203C56.894 79.4896 56.1316 79.7211 55.8333 80.3495C55.535 80.9448 55.7339 81.7055 56.3636 82.0031C56.9602 82.3338 57.7225 82.1023 58.0208 81.474C58.3191 80.8787 58.0871 80.118 57.4905 79.8203Z" fill="#1C2628" stroke="#1C2628" stroke-width="2.13" stroke-linecap="round" stroke-linejoin="round"/>
<path fill-rule="evenodd" clip-rule="evenodd" d="M61.3354 71.7838C60.772 71.4861 60.1091 71.6184 59.8771 72.1145C59.6119 72.5775 59.8771 73.2059 60.4405 73.5035C61.004 73.8012 61.6668 73.6689 61.8989 73.1728C62.164 72.7098 61.8989 72.0814 61.3354 71.7838Z" fill="#1C2628" stroke="#1C2628" stroke-width="2.13" stroke-linecap="round" stroke-linejoin="round"/>
<path d="M53.6459 71.9822C53.8779 70.6593 52.5852 69.4356 51.7898 68.5427" stroke="#FAF6EB" stroke-width="2.13" stroke-linecap="round" stroke-linejoin="round"/>
<path d="M43.0399 90.3043C42.1782 88.5515 40.9187 82.1685 43.1062 81.1102C45.0949 80.118 45.9566 85.0789 45.0617 84.5166C41.6479 82.3339 44.2994 74.8264 47.2824 73.239" stroke="#FAF6EB" stroke-width="2.13" stroke-linecap="round" stroke-linejoin="round"/>
<path fill-rule="evenodd" clip-rule="evenodd" d="M63.2908 96.8857L70.6156 92.8178L72.0739 97.944C72.0739 97.944 69.4887 98.1425 67.1023 97.7125C64.7491 97.2826 63.2908 96.8857 63.2908 96.8857Z" fill="#1C2628" stroke="#1C2628" stroke-width="2.13" stroke-linecap="round" stroke-linejoin="round"/>
<path fill-rule="evenodd" clip-rule="evenodd" d="M53.5464 93.0493C53.5464 92.0902 54.3418 91.3296 55.3362 91.3296C56.3305 91.3296 57.1259 92.0902 57.1259 93.0493C57.1259 94.0084 56.3305 94.7691 55.3362 94.7691C54.3418 94.7691 53.5464 93.9753 53.5464 93.0493Z" fill="#1C2628" stroke="#1C2628" stroke-width="2.13" stroke-linecap="round" stroke-linejoin="round"/>
<path d="M56.4631 92.8509C59.0152 95.3975 62.6942 101.681 65.18 108.329C67.3675 114.216 58.518 127.742 58.0872 133.001C57.59 138.656 66.7046 156.019 61.4678 166.073C57.0266 174.606 48.2766 173.746 43.7027 183.37C39.1288 192.994 34.6875 212.771 13.2434 215.715" stroke="#1C2628" stroke-width="2.13" stroke-linecap="round" stroke-linejoin="round"/>
<path d="M146.416 87.9892C149.432 95.4305 120.331 98.3078 107.008 114.546C93.6837 130.785 67.1023 114.877 62.9924 121.194" stroke="#1C2628" stroke-width="2.13" stroke-linecap="round" stroke-linejoin="round"/>
<path d="M91.4299 258.544C91.4299 258.544 102.666 259.007 105.052 258.709" stroke="#1C2628" stroke-width="2.13" stroke-linecap="round" stroke-linejoin="round"/>
<path d="M18.8447 188.199L36.9082 190.679" stroke="#1C2628" stroke-width="2.13" stroke-linecap="round" stroke-linejoin="round"/>
<path d="M85.696 52.5025L104.92 51.8411" stroke="#1C2628" stroke-width="2.13" stroke-linecap="round" stroke-linejoin="round"/>
<path fill-rule="evenodd" clip-rule="evenodd" d="M157.851 88.2869C157.022 90.0397 154.602 89.4444 152.912 90.0397C152.912 90.0397 154.238 92.9501 157.121 91.4288C159.011 90.4035 157.851 88.2869 157.851 88.2869Z" fill="#1C2628" stroke="#1C2628" stroke-width="2.13" stroke-linecap="round" stroke-linejoin="round"/>
<path d="M150.89 166.966C150.89 166.966 157.353 168.587 159.441 170.803C161.828 173.382 169.848 178.376 172.699 180.063" stroke="#1C2628" stroke-width="2.13" stroke-linecap="round" stroke-linejoin="round"/>
<path d="M152.481 84.0867C152.481 81.5732 154.669 79.5558 157.387 79.5558C160.104 79.5558 162.292 81.5732 162.292 84.0867C162.292 86.6002 160.104 88.6176 157.387 88.6176C154.669 88.6176 152.481 86.6002 152.481 84.0867Z" stroke="#FAF6EB" stroke-width="2.13" stroke-linecap="round" stroke-linejoin="round"/>
<path d="M142.737 81.1432C142.737 78.6297 144.924 76.6123 147.642 76.6123C150.36 76.6123 152.547 78.6297 152.547 81.1432C152.547 83.6568 150.36 85.6742 147.642 85.6742C144.924 85.6742 142.737 83.6237 142.737 81.1432Z" stroke="#FAF6EB" stroke-width="2.13" stroke-linecap="round" stroke-linejoin="round"/>
<path fill-rule="evenodd" clip-rule="evenodd" d="M151.586 84.3843C149.365 83.9875 147.41 82.4331 146.714 83.5575C145.819 85.0127 148.736 87.3939 149.2 87.5262" fill="#F45B49"/>
<path d="M151.586 84.3843C149.365 83.9875 147.41 82.4331 146.714 83.5575C145.819 85.0127 148.736 87.3939 149.2 87.5262" stroke="#1C2628" stroke-width="2.13" stroke-linecap="round" stroke-linejoin="round"/>
<path d="M155 69.9648C156.989 69.9648 156.955 76.017 157.32 78.2329" stroke="#FAF6EB" stroke-width="2.13" stroke-linecap="round" stroke-linejoin="round"/>
<path d="M162.955 67.319C170.246 74.2642 169.583 84.0205 170.511 89.0475" stroke="#FAF6EB" stroke-width="2.13" stroke-linecap="round" stroke-linejoin="round"/>
<path d="M173.13 81.1102C173.826 84.9466 174.721 88.7499 175.549 92.5863" stroke="#FAF6EB" stroke-width="2.13" stroke-linecap="round" stroke-linejoin="round"/>
<path d="M152.183 118.25C151.288 124.137 148.007 130.553 144.924 133.861C144.361 134.456 143.599 135.184 142.77 135.779" stroke="#1C2628" stroke-width="2.13" stroke-linecap="round" stroke-linejoin="round"/>
<path d="M141.444 125.196C145.189 120.136 155.961 109.222 163.087 114.613C169.616 119.54 157.453 137.598 153.575 142.724" stroke="#1C2628" stroke-width="2.13" stroke-linecap="round" stroke-linejoin="round"/>
<path d="M148.67 142.493C149.863 139.781 151.918 136.804 152.415 136.11C156.558 130.256 168.357 115.241 177.107 118.019C177.273 118.052 177.405 118.118 177.538 118.184" stroke="#1C2628" stroke-width="2.13" stroke-linecap="round" stroke-linejoin="round"/>
<path d="M180.455 118.25C180.521 119.375 177.538 132.24 172.235 139.351" stroke="#1C2628" stroke-width="2.13" stroke-linecap="round" stroke-linejoin="round"/>
<path d="M167.296 138.722C167.661 137.796 168.059 136.87 168.49 135.977C170.876 130.851 174.422 125.196 178.996 121.161" stroke="#1C2628" stroke-width="2.13" stroke-linecap="round" stroke-linejoin="round"/>
<path fill-rule="evenodd" clip-rule="evenodd" d="M8.53704 213.764H18.3145C19.4745 213.764 20.4026 214.69 20.4026 215.847C20.4026 217.005 19.4745 217.931 18.3145 217.931H8.53704C7.377 217.931 6.44897 217.005 6.44897 215.847C6.44897 214.69 7.41015 213.764 8.53704 213.764Z" fill="#1C2628" stroke="#1C2628" stroke-width="2.13" stroke-linecap="round" stroke-linejoin="round"/>
<path d="M192.453 159.293C201.832 161.774 231.264 175.135 237.86 173.051C244.455 170.935 251.714 161.013 258.144 157.243" stroke="#1C2628" stroke-width="2.13" stroke-linecap="round" stroke-linejoin="round"/>
<path d="M142.869 168.355C145.09 177.748 127.888 187.769 125.767 198.385C123.513 209.663 134.285 196.731 138.428 196.731C142.505 196.731 136.506 207.877 135.777 210.357C133.622 217.699 134.153 220.477 137.865 227.224" stroke="#1C2628" stroke-width="2.13" stroke-linecap="round" stroke-linejoin="round"/>
<path d="M63.2578 121.657C61.9652 122.087 60.772 120.863 61.9983 120.036C63.7218 118.879 63.6555 121.525 63.2578 121.657Z" stroke="#1C2628" stroke-width="2.13" stroke-linecap="round" stroke-linejoin="round"/>
<path fill-rule="evenodd" clip-rule="evenodd" d="M51.9886 242.239C50.4308 242.867 50.6297 245.249 49.8342 246.704C48.4091 249.383 45.6581 251.764 43.106 253.351C40.0236 255.236 35.8806 259.867 34.7538 263.306C33.2954 267.804 35.8144 272.732 41.2168 271.475C46.4204 270.251 46.1553 263.538 47.9782 259.767C49.768 256.063 60.8049 246.968 56.3305 242.669C54.9716 241.346 53.4138 241.677 51.9886 242.239Z" fill="#F3A13B"/>
<path fill-rule="evenodd" clip-rule="evenodd" d="M118.972 127.213C114.796 129.594 105.649 124.733 110.819 119.871C113.437 117.391 114.829 120.632 117.249 119.871C120.033 119.011 119.967 114.943 122.883 114.05C124.773 113.455 125.204 116.233 125.038 117.358C124.441 120.896 122.154 125.394 118.972 127.213Z" fill="#FAF6EB"/>
<path d="M154.337 156.218L191.226 145.601" stroke="#1C2628" stroke-width="2.13" stroke-linecap="round" stroke-linejoin="round"/>
<path fill-rule="evenodd" clip-rule="evenodd" d="M147.012 271.508L149.432 285.068L169.252 283.249L164.545 267.969L147.012 271.508Z" fill="#F3A140" stroke="#1C2628" stroke-width="2.13" stroke-linecap="round" stroke-linejoin="round"/>
<path fill-rule="evenodd" clip-rule="evenodd" d="M161.198 268.631C162.921 272.269 164.247 279.049 165.374 283.05L161.198 268.631Z" fill="#FAF6EB"/>
<path d="M161.198 268.631C162.921 272.269 164.247 279.049 165.374 283.05" stroke="#1C2628" stroke-width="2.13" stroke-linecap="round" stroke-linejoin="round"/>
<path fill-rule="evenodd" clip-rule="evenodd" d="M157.718 269.557C159.077 274.352 161.264 279.677 161.828 284.605L157.718 269.557Z" fill="#FAF6EB"/>
<path d="M157.718 269.557C159.077 274.352 161.264 279.677 161.828 284.605" stroke="#1C2628" stroke-width="2.13" stroke-linecap="round" stroke-linejoin="round"/>
<path fill-rule="evenodd" clip-rule="evenodd" d="M154.205 270.152C155.63 275.179 157.022 280.603 158.149 285.696L154.205 270.152Z" fill="#FAF6EB"/>
<path d="M154.205 270.152C155.63 275.179 157.022 280.603 158.149 285.696" stroke="#1C2628" stroke-width="2.13" stroke-linecap="round" stroke-linejoin="round"/>
<path fill-rule="evenodd" clip-rule="evenodd" d="M150.625 270.78C151.918 275.311 152.779 280.57 153.807 285.233L150.625 270.78Z" fill="#FAF6EB"/>
<path d="M150.625 270.78C151.918 275.311 152.779 280.57 153.807 285.233" stroke="#1C2628" stroke-width="2.13" stroke-linecap="round" stroke-linejoin="round"/>
<path fill-rule="evenodd" clip-rule="evenodd" d="M143.201 281L146.747 274.915C146.747 274.915 151.652 274.881 151.487 276.138C151.321 277.395 149.399 282.687 149.399 282.687L143.201 281Z" fill="#FAF6EB" stroke="#1C2628" stroke-width="2.13" stroke-linecap="round" stroke-linejoin="round"/>
<path fill-rule="evenodd" clip-rule="evenodd" d="M144.692 278.817L154.238 281.761C154.238 281.761 162.491 283.58 164.214 283.116C165.971 282.62 165.54 281.264 166.501 280.504C167.462 279.743 169.285 279.908 169.285 279.908C169.285 279.908 169.683 281.562 169.981 285.299C170.279 289.036 168.887 293.435 168.887 293.435L139.489 294.56L124.508 294.626C124.508 294.626 121.724 289.036 125.866 287.251C130.076 285.432 133.987 284.836 139.886 282.422C142.836 281.198 144.692 278.817 144.692 278.817Z" fill="#47584E" stroke="#1C2628" stroke-width="2.13" stroke-linecap="round" stroke-linejoin="round"/>
<path fill-rule="evenodd" clip-rule="evenodd" d="M169.053 292.178C168.291 291.98 155.265 291.781 155.265 291.781C155.265 291.781 152.912 292.906 145.687 293.733C138.461 294.56 124.508 294.394 124.508 294.394C124.508 294.394 127.457 296.709 133.92 296.213C141.411 295.651 168.688 295.452 168.688 295.452C168.688 295.452 170.18 294.824 170.279 294.097C170.312 293.369 169.882 292.41 169.053 292.178Z" fill="#FAF6EB" stroke="#1C2628" stroke-width="2.13" stroke-linecap="round" stroke-linejoin="round"/>
<path d="M143.897 282.521C143.897 282.124 144.228 281.794 144.659 281.794C145.09 281.794 145.421 282.124 145.421 282.521C145.421 282.918 145.09 283.249 144.659 283.249C144.261 283.249 143.897 282.918 143.897 282.521Z" fill="#FAF6EB" stroke="#1C2628" stroke-width="2.13" stroke-linecap="round" stroke-linejoin="round"/>
<path d="M139.29 284.605C139.29 284.208 139.621 283.877 140.052 283.877C140.483 283.877 140.814 284.208 140.814 284.605C140.814 285.002 140.483 285.332 140.052 285.332C139.654 285.332 139.29 285.002 139.29 284.605Z" fill="#FAF6EB" stroke="#1C2628" stroke-width="2.13" stroke-linecap="round" stroke-linejoin="round"/>
<path d="M134.616 286.424C134.616 286.027 134.948 285.696 135.379 285.696C135.81 285.696 136.141 286.027 136.141 286.424C136.141 286.821 135.81 287.151 135.379 287.151C134.981 287.151 134.616 286.821 134.616 286.424Z" fill="#FAF6EB" stroke="#1C2628" stroke-width="2.13" stroke-linecap="round" stroke-linejoin="round"/>
<path fill-rule="evenodd" clip-rule="evenodd" d="M142.936 279.875L144.394 282.091L142.936 279.875Z" fill="#FAF6EB"/>
<path d="M142.936 279.875L144.394 282.091" stroke="#1C2628" stroke-width="2.13" stroke-linecap="round" stroke-linejoin="round"/>
<path fill-rule="evenodd" clip-rule="evenodd" d="M138.494 281.959L139.953 284.175L138.494 281.959Z" fill="#FAF6EB"/>
<path d="M138.494 281.959L139.953 284.175" stroke="#1C2628" stroke-width="2.13" stroke-linecap="round" stroke-linejoin="round"/>
<path fill-rule="evenodd" clip-rule="evenodd" d="M133.821 283.712L135.279 285.928L133.821 283.712Z" fill="#FAF6EB"/>
<path d="M133.821 283.712L135.279 285.928" stroke="#1C2628" stroke-width="2.13" stroke-linecap="round" stroke-linejoin="round"/>
<path fill-rule="evenodd" clip-rule="evenodd" d="M154.105 281.661C154.105 281.661 152.514 284.274 154.304 286.192C156.094 288.077 160.336 291.616 160.336 291.616C160.336 291.616 160.27 288.937 162.258 287.879C164.247 286.854 169.65 285.531 169.65 285.531L169.948 282.786L165.308 282.72C165.308 282.72 162.126 283.083 159.474 282.72C156.79 282.356 154.105 281.661 154.105 281.661Z" fill="#FAF6EB" stroke="#1C2628" stroke-width="2.13" stroke-linecap="round" stroke-linejoin="round"/>
<path fill-rule="evenodd" clip-rule="evenodd" d="M123.878 288.871C123.878 288.871 125.204 290.293 128.286 290.194C131.368 290.095 133.258 290.029 133.258 290.029L133.423 288.309C133.423 288.309 131.302 288.64 131.136 287.614C130.971 286.589 130.474 285.432 130.474 285.432C130.474 285.432 128.717 285.895 125.9 287.085C124.243 287.78 123.878 288.871 123.878 288.871Z" fill="#FAF6EB" stroke="#1C2628" stroke-width="2.13" stroke-linecap="round" stroke-linejoin="round"/>
<path d="M133.224 288.309L143.201 287.581L148.106 293.237" stroke="#1C2628" stroke-width="2.13" stroke-linecap="round" stroke-linejoin="round"/>
<path fill-rule="evenodd" clip-rule="evenodd" d="M279.787 148.842L296.889 138.524L277.666 125.096L267.955 137.763L279.787 148.842Z" fill="#F3A140" stroke="#1C2628" stroke-width="2.13" stroke-linecap="round" stroke-linejoin="round"/>
<path fill-rule="evenodd" clip-rule="evenodd" d="M270.44 140.111C272.396 136.606 277.202 131.612 279.787 128.338L270.44 140.111Z" fill="#FAF6EB"/>
<path d="M270.44 140.111C272.396 136.606 277.202 131.612 279.787 128.338" stroke="#1C2628" stroke-width="2.13" stroke-linecap="round" stroke-linejoin="round"/>
<path fill-rule="evenodd" clip-rule="evenodd" d="M273.224 142.426C276.34 138.524 283.3 132.306 286.979 128.999L273.224 142.426Z" fill="#FAF6EB"/>
<path d="M273.224 142.426C276.34 138.524 283.3 132.306 286.979 128.999" stroke="#1C2628" stroke-width="2.13" stroke-linecap="round" stroke-linejoin="round"/>
<path fill-rule="evenodd" clip-rule="evenodd" d="M275.743 144.907C278.992 140.839 285.819 135.944 289.332 132.075L275.743 144.907Z" fill="#FAF6EB"/>
<path d="M275.743 144.907C278.992 140.839 285.819 135.944 289.332 132.075" stroke="#1C2628" stroke-width="2.13" stroke-linecap="round" stroke-linejoin="round"/>
<path fill-rule="evenodd" clip-rule="evenodd" d="M278.329 147.453C281.278 143.749 289.598 139.152 292.813 135.613L278.329 147.453Z" fill="#FAF6EB"/>
<path d="M278.329 147.453C281.278 143.749 289.598 139.152 292.813 135.613" stroke="#1C2628" stroke-width="2.13" stroke-linecap="round" stroke-linejoin="round"/>
<path fill-rule="evenodd" clip-rule="evenodd" d="M296.923 138.524L292.846 144.245C292.846 144.245 287.941 143.849 288.239 142.625C288.504 141.368 290.89 136.275 290.89 136.275L296.923 138.524Z" fill="#FAF6EB" stroke="#1C2628" stroke-width="2.13" stroke-linecap="round" stroke-linejoin="round"/>
<path fill-rule="evenodd" clip-rule="evenodd" d="M295.265 140.541L286.018 136.771C286.018 136.771 277.964 134.224 276.208 134.555C274.418 134.886 274.716 136.275 273.689 136.936C272.661 137.598 268.551 135.713 268.551 135.713C268.551 135.713 270.606 135.614 270.639 131.876C270.672 128.139 272.462 123.873 272.462 123.873L301.861 125.361L316.776 126.618C316.776 126.618 319.029 132.405 314.754 133.861C310.412 135.283 306.435 135.547 300.369 137.432C297.32 138.359 295.265 140.541 295.265 140.541Z" fill="#47584E" stroke="#1C2628" stroke-width="2.13" stroke-linecap="round" stroke-linejoin="round"/>
<path fill-rule="evenodd" clip-rule="evenodd" d="M272.197 125.096C272.926 125.361 285.886 126.717 285.886 126.717C285.886 126.717 288.338 125.791 295.597 125.626C302.888 125.46 316.743 126.849 316.743 126.849C316.743 126.849 314.025 124.27 307.529 124.204C300.005 124.104 272.86 121.855 272.86 121.855C272.86 121.855 271.302 122.351 271.17 123.046C271.037 123.774 271.369 124.799 272.197 125.096Z" fill="#FAF6EB" stroke="#1C2628" stroke-width="2.13" stroke-linecap="round" stroke-linejoin="round"/>
<path d="M296.359 136.936C296.326 137.333 295.961 137.631 295.531 137.598C295.1 137.565 294.801 137.201 294.835 136.804C294.868 136.407 295.232 136.11 295.663 136.143C296.094 136.176 296.392 136.54 296.359 136.936Z" fill="#FAF6EB" stroke="#1C2628" stroke-width="2.13" stroke-linecap="round" stroke-linejoin="round"/>
<path d="M301.132 135.283C301.099 135.68 300.734 135.977 300.303 135.944C299.872 135.911 299.574 135.547 299.607 135.151C299.64 134.754 300.005 134.456 300.436 134.489C300.867 134.522 301.165 134.853 301.132 135.283Z" fill="#FAF6EB" stroke="#1C2628" stroke-width="2.13" stroke-linecap="round" stroke-linejoin="round"/>
<path d="M305.971 133.861C305.938 134.258 305.573 134.555 305.142 134.522C304.711 134.489 304.413 134.125 304.446 133.728C304.479 133.332 304.844 133.034 305.275 133.067C305.672 133.1 306.004 133.464 305.971 133.861Z" fill="#FAF6EB" stroke="#1C2628" stroke-width="2.13" stroke-linecap="round" stroke-linejoin="round"/>
<path fill-rule="evenodd" clip-rule="evenodd" d="M297.088 139.681L295.829 137.333L297.088 139.681Z" fill="#FAF6EB"/>
<path d="M297.088 139.681L295.829 137.333" stroke="#1C2628" stroke-width="2.13" stroke-linecap="round" stroke-linejoin="round"/>
<path fill-rule="evenodd" clip-rule="evenodd" d="M301.695 137.962L300.436 135.613L301.695 137.962Z" fill="#FAF6EB"/>
<path d="M301.695 137.962L300.436 135.613" stroke="#1C2628" stroke-width="2.13" stroke-linecap="round" stroke-linejoin="round"/>
<path fill-rule="evenodd" clip-rule="evenodd" d="M306.534 136.639L305.308 134.291L306.534 136.639Z" fill="#FAF6EB"/>
<path d="M306.534 136.639L305.308 134.291" stroke="#1C2628" stroke-width="2.13" stroke-linecap="round" stroke-linejoin="round"/>
<path fill-rule="evenodd" clip-rule="evenodd" d="M286.118 136.87C286.118 136.87 287.94 134.39 286.316 132.339C284.692 130.289 280.781 126.419 280.781 126.419C280.781 126.419 280.616 129.098 278.528 129.958C276.439 130.818 270.971 131.645 270.971 131.645L270.44 134.357L275.047 134.82C275.047 134.82 278.262 134.721 280.848 135.349C283.499 135.977 286.118 136.87 286.118 136.87Z" fill="#FAF6EB" stroke="#1C2628" stroke-width="2.13" stroke-linecap="round" stroke-linejoin="round"/>
<path fill-rule="evenodd" clip-rule="evenodd" d="M316.908 132.372C316.908 132.372 315.715 130.818 312.633 130.653C309.55 130.487 307.661 130.388 307.661 130.388L307.33 132.075C307.33 132.075 309.451 131.942 309.55 132.968C309.617 133.993 310.014 135.184 310.014 135.184C310.014 135.184 311.804 134.886 314.721 133.96C316.444 133.431 316.908 132.372 316.908 132.372Z" fill="#FAF6EB" stroke="#1C2628" stroke-width="2.13" stroke-linecap="round" stroke-linejoin="round"/>
<path d="M307.495 132.108L297.486 131.942L293.144 125.857" stroke="#1C2628" stroke-width="2.13" stroke-linecap="round" stroke-linejoin="round"/>
<path fill-rule="evenodd" clip-rule="evenodd" d="M89.9054 297.768L75.1564 298.098L46.9177 297.701L49.6687 283.249L62.2302 282.918C62.2302 282.918 61.7994 279.611 65.0806 279.743C67.5995 279.842 75.0238 287.515 81.8846 289.632C91.2975 292.575 89.9054 297.768 89.9054 297.768Z" fill="#F3A13B"/>
<path fill-rule="evenodd" clip-rule="evenodd" d="M89.7398 295.882L57.8222 295.717C56.8941 295.717 56.165 296.378 56.1318 297.205V297.734C56.1318 298.561 56.861 299.223 57.789 299.223L89.7066 299.388C90.6347 299.388 91.3638 298.727 91.397 297.9V297.371C91.397 296.577 90.6678 295.882 89.7398 295.882Z" fill="#1C2628" stroke="#1C2628" stroke-width="2.13" stroke-linecap="round" stroke-linejoin="round"/>
<path fill-rule="evenodd" clip-rule="evenodd" d="M60.5068 299.256L45.4263 299.024L46.3543 291.12C46.3543 291.12 54.0106 290.69 56.6289 293.137C59.2804 295.684 60.5068 299.256 60.5068 299.256Z" fill="#1C2628" stroke="#1C2628" stroke-width="2.13" stroke-linecap="round" stroke-linejoin="round"/>
<path fill-rule="evenodd" clip-rule="evenodd" d="M83.3762 290.128L65.6773 279.313C65.6773 279.313 62.8601 279.743 62.1309 280.901C61.4018 282.025 62.6944 283.844 62.6944 283.844C62.6944 283.844 72.8033 290.591 77.112 291.947C80.1281 292.873 83.3762 290.128 83.3762 290.128Z" fill="#1C2628" stroke="#1C2628" stroke-width="2.13" stroke-linecap="round" stroke-linejoin="round"/>
<path d="M67.4671 285.861L61.3354 297.305" stroke="#1C2628" stroke-width="2.13" stroke-linecap="round" stroke-linejoin="round"/>
<path d="M49.6687 283.249L48.1772 293.733" stroke="#1C2628" stroke-width="2.13" stroke-linecap="round" stroke-linejoin="round"/>
<path d="M49.2046 186.247L75.8192 220.841L68.4612 236.749" stroke="#1C2628" stroke-width="2.13" stroke-linecap="round" stroke-linejoin="round"/>
<path fill-rule="evenodd" clip-rule="evenodd" d="M279.456 155.821C274.849 162.799 255.426 190.679 237.064 194.979C232.921 195.938 227.917 195.938 222.547 195.342C225.762 192.068 230.966 190.117 235.606 188.397C243.992 185.288 245.914 186.777 249.228 183.8C253.703 179.798 251.383 176.061 255.691 168.818C256.984 166.635 262.287 158.433 271.733 156.383C273.523 155.986 276.506 155.622 279.456 155.821Z" fill="#1C2628" stroke="#1C2628" stroke-width="2.13" stroke-linecap="round" stroke-linejoin="round"/>
<path fill-rule="evenodd" clip-rule="evenodd" d="M172.699 180.063L152.912 208.108L167.296 249.416L160.237 250.474C153.111 247.2 147.741 240.552 147.012 233.905C146.615 230.201 148.073 230.234 147.808 225.504C147.344 216.145 141.61 214.392 142.604 208.571C143.532 203.114 148.802 203.346 151.155 195.805C152.547 191.307 151.089 189.918 152.415 186.28C153.608 183.072 156.657 179.104 165.009 175.962C167.23 176.689 170.08 177.913 172.699 180.063Z" fill="#1C2628" stroke="#1C2628" stroke-width="2.13" stroke-linecap="round" stroke-linejoin="round"/>
<path fill-rule="evenodd" clip-rule="evenodd" d="M206.638 153.109C202.86 155.06 199.744 155.457 197.391 155.358C191.558 155.093 188.973 151.654 182.973 152.712C178.366 153.506 177.472 155.953 174.091 155.821C170.246 155.688 167.031 152.348 164.545 148.545L185.36 142.79L206.638 153.109Z" fill="#1C2628" stroke="#1C2628" stroke-width="2.13" stroke-linecap="round" stroke-linejoin="round"/>
<path fill-rule="evenodd" clip-rule="evenodd" d="M191.226 135.812C191.226 135.812 180.654 137.796 175.814 138.722C172.268 139.384 168.258 142.327 159.773 144.609C159.508 143.584 159.408 142.493 159.939 141.6C160.867 139.979 162.922 140.508 166.468 138.954C170.213 137.3 169.815 135.911 172.699 135.084C176.477 134.026 178.101 136.209 180.256 134.985C182.907 133.464 181.449 129.627 183.603 125.725C184.1 124.832 184.73 124.038 185.459 123.277L191.226 135.812Z" fill="#1C2628" stroke="#1C2628" stroke-width="2.13" stroke-linecap="round" stroke-linejoin="round"/>
<path fill-rule="evenodd" clip-rule="evenodd" d="M96.9981 17.3797C96.9981 17.3797 97.893 6.66419 95.3078 3.85303C93.1534 1.53797 83.4754 -0.843248 80.5918 3.72074C77.7083 8.28474 84.2377 22.2744 84.2377 22.2744L86.6572 44.6644L104.588 43.7714C101.738 30.2448 96.9981 17.3797 96.9981 17.3797Z" fill="#F45B49" stroke="#1C2628" stroke-width="2.13" stroke-linecap="round" stroke-linejoin="round"/>
<path d="M85.0994 13.8078C87.6514 9.37613 84.9336 6.59805 84.9336 6.59805C84.9336 6.59805 90.5018 6.96185 91.3967 4.18377C92.5899 0.380438 84.2708 1.30647 84.2708 1.30647" fill="#F45B49"/>
<path d="M85.0994 13.8078C87.6514 9.37613 84.9336 6.59805 84.9336 6.59805C84.9336 6.59805 90.5018 6.96185 91.3967 4.18377C92.5899 0.380438 84.2708 1.30647 84.2708 1.30647" stroke="#1C2628" stroke-width="2.13" stroke-linecap="round" stroke-linejoin="round"/>
<path d="M90.1041 10.7652C90.4687 9.37612 89.8721 7.491 89.3418 6.20117L90.1041 10.7652Z" fill="#F45B49"/>
<path d="M90.1041 10.7652C90.4687 9.37612 89.8721 7.491 89.3418 6.20117" stroke="#1C2628" stroke-width="2.13" stroke-linecap="round" stroke-linejoin="round"/>
<path d="M93.3191 9.11155C93.6505 7.29257 93.2528 4.84521 91.7944 3.55539L93.3191 9.11155Z" fill="#F45B49"/>
<path d="M93.3191 9.11155C93.6505 7.29257 93.2528 4.84521 91.7944 3.55539" stroke="#1C2628" stroke-width="2.13" stroke-linecap="round" stroke-linejoin="round"/>
<path d="M182.41 30.2117L177.803 11.7904L178.068 11.6581L176.875 6.79648L158.414 16.1229L159.674 21.216L159.939 21.0838L164.148 38.0168C162.922 37.6861 161.397 38.0168 160.071 39.0421C158.149 40.5634 157.486 42.9446 158.613 44.3998C159.74 45.855 162.226 45.8219 164.181 44.3006C166.137 42.8123 166.766 40.398 165.639 38.9429C165.606 38.8767 165.54 38.8436 165.474 38.7775L161.53 22.9689L177.406 14.8992L181.018 29.4511C179.792 29.1204 178.234 29.4511 176.908 30.4763C174.953 31.9977 174.323 34.3789 175.45 35.8341C176.577 37.2892 179.063 37.2562 181.018 35.7348C182.974 34.2135 183.603 31.8323 182.477 30.3771C182.51 30.2779 182.443 30.2448 182.41 30.2117ZM161.298 21.8444L160.966 20.5215L176.809 12.3196L177.174 13.7417L161.298 21.8444Z" fill="#1C2628" stroke="#1C2628" stroke-width="2.13" stroke-linecap="round" stroke-linejoin="round"/>
<path d="M129.744 49.5591C129.612 49.526 129.446 49.5591 129.38 49.6914C127.69 52.0395 125.999 53.3294 124.276 53.5278C123.977 53.5609 123.712 53.5609 123.414 53.5609C124.243 53.0978 124.806 52.238 124.872 51.2458C124.972 49.6914 123.745 48.3354 122.188 48.2693C120.63 48.1701 119.271 49.3937 119.205 50.9481C119.105 52.5025 120.332 53.8585 121.889 53.9247C121.956 53.9247 122.022 53.9247 122.088 53.9247C122.851 54.1892 123.613 54.2885 124.375 54.1892C126.032 53.9908 127.69 52.8663 129.28 50.9151L128.949 57.0335C127.292 59.3155 125.601 60.5722 123.911 60.8037C123.613 60.8368 123.348 60.8368 123.049 60.8368C123.878 60.3738 124.441 59.5139 124.508 58.5217C124.574 56.9673 123.381 55.6114 121.823 55.5452C120.265 55.4791 118.906 56.6697 118.84 58.2241C118.741 59.7785 119.967 61.1344 121.525 61.2006C121.591 61.2006 121.657 61.2006 121.724 61.2006C122.287 61.399 122.817 61.4982 123.381 61.4982C123.58 61.4982 123.779 61.4982 124.011 61.4652C125.668 61.2667 127.325 60.1423 128.916 58.191L128.352 68.9065L128.982 68.9395L130.01 49.9229C129.943 49.7575 129.877 49.6252 129.744 49.5591Z" fill="#1C2628" stroke="#1C2628" stroke-width="2.13" stroke-linecap="round" stroke-linejoin="round"/>
<path d="M196.43 90.8996C193.977 97.4149 191.193 103.831 188.111 110.082" stroke="#1C2628" stroke-width="2.13" stroke-linecap="round" stroke-linejoin="round"/>
<path d="M201.567 76.447C201.534 77.7699 201.269 79.1258 200.805 80.3495C200.507 81.0771 200.142 81.8378 200.208 82.5984C200.971 82.8961 201.932 82.1685 201.866 81.3417C201.7 81.2425 201.468 81.3747 201.335 81.5401C200.01 82.9622 199.247 84.8473 199.214 86.7655" stroke="#1C2628" stroke-width="2.13" stroke-linecap="round" stroke-linejoin="round"/>
<path d="M196.065 81.3417C194.243 85.7072 192.453 90.0397 190.63 94.4053" stroke="#1C2628" stroke-width="2.13" stroke-linecap="round" stroke-linejoin="round"/>
<path d="M62.7605 249.019L54.8391 266.084" stroke="#1C2628" stroke-width="2.13" stroke-linecap="round" stroke-linejoin="round"/>
<path d="M209.522 187.471C210.781 187.901 212.074 188.199 213.367 188.364C215.455 188.629 217.642 188.596 219.631 189.323" stroke="#1C2628" stroke-width="2.13" stroke-linecap="round" stroke-linejoin="round"/>
<path d="M219.664 187.041C222.746 186.975 225.829 186.611 228.712 185.553C230.137 185.024 231.496 184.329 232.888 183.734C236.402 182.246 240.18 181.452 243.925 180.857" stroke="#1C2628" stroke-width="2.13" stroke-linecap="round" stroke-linejoin="round"/>
<path d="M242.169 178.31C236.899 180.79 231.098 182.146 225.265 182.279" stroke="#1C2628" stroke-width="2.13" stroke-linecap="round" stroke-linejoin="round"/>
<path d="M61.5672 242.801C61.2689 242.768 61.0038 242.967 60.7718 243.198C59.8769 244.058 60.6723 245.017 59.9763 246.075" stroke="white" stroke-width="2.13" stroke-linecap="round" stroke-linejoin="round"/>
<path d="M71.7095 190.646C73.5324 194.251 69.1574 195.971 78.2388 200.832" stroke="#1C2628" stroke-width="2.13" stroke-linecap="round" stroke-linejoin="round"/>
</svg>
