<svg width="277" height="331" viewBox="0 0 277 331" fill="none" xmlns="http://www.w3.org/2000/svg">
<path fill-rule="evenodd" clip-rule="evenodd" d="M212.46 264.881C210.897 280.905 182.195 291.83 143.912 292.761C143.872 292.761 143.791 292.761 143.751 292.761C134.612 292.963 124.911 292.64 114.889 291.668C94.5247 289.686 75.9244 285.356 60.9319 279.61C54.8387 277.304 49.3869 274.754 44.6166 272.043C31.1474 264.355 23.4507 255.372 24.2926 246.429C26.0564 228.18 63.0164 216.566 109.277 218.751C113.406 218.954 117.615 219.237 121.864 219.682C142.629 221.705 161.59 226.197 176.703 232.064C199.432 240.845 213.623 252.903 212.46 264.881Z" fill="#1C2628" stroke="#1C2628" stroke-width="2.13" stroke-linecap="round" stroke-linejoin="round"/>
<path d="M221.72 252.458C226.611 258.528 227.092 263.829 226.811 270.627C225.889 292.478 196.506 297.212 180.11 302.108" stroke="#1C2628" stroke-width="2.13" stroke-linecap="round" stroke-linejoin="round"/>
<path d="M58.1259 210.618C34.4747 214.624 6.0531 230.284 14.6718 258.771" stroke="#1C2628" stroke-width="2.13" stroke-linecap="round" stroke-linejoin="round"/>
<path d="M163.113 270.991C164.356 269.251 164.155 270.384 162.712 270.708C157.541 271.881 152.37 273.257 147.239 274.633C140.745 276.373 135.213 280.622 129.24 283.697" stroke="#1C2628" stroke-width="2.13" stroke-linecap="round" stroke-linejoin="round"/>
<path fill-rule="evenodd" clip-rule="evenodd" d="M194.862 209.728C218.674 184.114 157.341 63.8935 119.338 87.0393C106.19 93.2303 100.818 103.711 95.567 116.052C82.8193 163.274 26.9383 147.493 25.2547 198.479C22.0878 272.893 169.367 264.476 194.862 209.728Z" fill="#F3A13B"/>
<path fill-rule="evenodd" clip-rule="evenodd" d="M57.1237 122.486C65.8627 121.07 74.2007 120.18 71.7955 132.724C71.4748 134.423 69.0696 145.025 60.6113 146.198C43.4541 148.99 39.8864 124.874 57.1237 122.486Z" fill="#F3A13B"/>
<path fill-rule="evenodd" clip-rule="evenodd" d="M83.0198 119.735C79.3318 122.365 72.3167 118.723 74.6417 113.827C76.4456 103.589 96.3287 115.122 83.0198 119.735Z" fill="#F3A13B"/>
<path d="M86.4271 177.963C87.6698 180.917 88.9526 184.154 88.1509 187.27C87.5095 189.86 85.5452 191.923 83.581 193.704C82.5788 194.594 81.5365 195.525 80.2538 195.889C78.971 196.294 77.4076 196.051 76.5658 194.999C75.6438 193.866 75.8843 192.126 76.5658 190.831C77.0869 189.819 77.9688 188.929 79.0512 188.605C80.9352 188.039 82.9396 189.455 83.7012 191.276C84.4629 193.097 84.2625 195.161 83.8616 197.103C82.218 205.034 77.7684 211.994 73.3989 218.792" stroke="#1C2628" stroke-width="2.13" stroke-linecap="round" stroke-linejoin="round"/>
<path fill-rule="evenodd" clip-rule="evenodd" d="M63.5376 168.778C68.1877 169.344 74.0404 161.615 67.1855 160.847C65.0609 161.615 60.6915 167.806 62.8161 168.616" fill="#FAF6EB"/>
<path fill-rule="evenodd" clip-rule="evenodd" d="M109.557 116.659C104.546 117.711 102.542 122.284 104.987 127.059C105.669 128.394 109.678 134.221 113.285 133.573C115.009 133.25 120.501 134.019 119.419 120.787C118.737 115.607 116.252 115.283 109.557 116.659Z" fill="#F45B49" stroke="#1C2628" stroke-width="2.13" stroke-linecap="round" stroke-linejoin="round"/>
<path fill-rule="evenodd" clip-rule="evenodd" d="M185.482 193.299C179.429 213.774 148.963 260.875 146.798 268.685L146.477 267.349C139.622 269.777 100.297 270.141 87.4294 257.638C86.1467 256.383 85.1445 255.048 84.4229 253.51L95.086 226.723C94.4446 227.653 88.151 222.029 95.4869 206.491C97.4912 202.242 101.66 190.75 101.66 190.75C101.981 189.01 102.903 182.252 104.025 173.998C103.865 173.714 103.825 173.552 103.825 173.552C100.297 171.125 87.0686 172.096 84.0621 161.656C83.6212 160.078 83.3807 158.216 83.4608 156.031C83.541 153.603 85.0242 152.47 86.7079 151.985C88.3514 151.499 90.1954 151.58 91.1174 151.661C96.0882 151.944 100.939 153.806 105.549 155.748C105.869 155.869 106.15 156.031 106.471 156.153C108.034 144.782 109.517 134.909 109.998 134.383C110.8 133.492 111.562 132.602 112.323 131.753C114.729 129.082 117.174 127.059 121.303 128.596C123.989 129.567 126.594 130.62 129.08 131.833C134.331 134.383 139.101 137.62 142.91 142.435C146.678 147.17 150.085 152.268 152.651 157.731C154.976 162.667 156.499 168.049 157.461 173.391C158.143 177.032 158.624 180.836 158.383 184.559C158.343 185.489 158.223 186.38 158.062 187.31C157.341 191.397 156.339 195.403 155.216 199.369L185.482 193.299Z" fill="#F45B49" stroke="#1C2628" stroke-width="2.13" stroke-linecap="round" stroke-linejoin="round"/>
<path fill-rule="evenodd" clip-rule="evenodd" d="M87.4294 257.638C86.1467 256.383 85.1445 255.048 84.4229 253.51L95.086 226.723C94.4446 227.654 88.151 222.029 95.4869 206.491C97.4912 202.242 101.66 190.75 101.66 190.75C101.981 189.01 102.903 182.252 104.025 173.998C103.865 173.714 103.825 173.552 103.825 173.552C100.297 171.125 87.0686 172.096 84.0621 161.656C86.9885 162.182 90.1152 163.153 93.4425 164.165C100.097 166.188 104.106 167.402 106.23 171.165C108.716 175.535 105.629 177.963 107.673 188.282C108.275 191.397 108.876 192.692 109.638 197.265C110.519 202.525 110.92 205.196 110.159 207.179C108.234 212.075 102.582 212.56 102.662 215.636C102.703 217.457 104.707 218.185 106.751 220.127C106.751 220.127 112.203 225.226 112.644 234.492C113.205 246.186 97.8921 259.701 87.4294 257.638Z" fill="#FAF6EB"/>
<path fill-rule="evenodd" clip-rule="evenodd" d="M158.423 184.599C155.818 186.825 152.971 188.565 149.885 189.536C141.507 192.207 132.848 188.848 125.432 185.935C119.579 183.628 112.524 180.917 110.72 174.888C109.718 171.529 111 169.425 109.076 166.957C106.872 164.205 103.945 165.257 98.7339 162.991C93.6028 160.766 90.5963 157.164 89.4738 155.788C88.5919 154.736 87.6298 153.401 86.7479 151.944C88.3915 151.459 90.2355 151.54 91.1575 151.621C96.1282 151.904 100.979 153.765 105.589 155.708C105.909 155.829 106.19 155.991 106.511 156.112C108.074 144.742 109.557 134.868 110.038 134.342C110.84 133.452 111.602 132.562 112.363 131.712C117.735 131.348 123.467 131.388 129.16 131.793C134.411 134.342 139.182 137.579 142.99 142.395C146.758 147.129 150.165 152.228 152.731 157.69C155.056 162.627 156.579 168.009 157.541 173.35C158.183 177.073 158.704 180.876 158.423 184.599Z" fill="#1C2628" stroke="#1C2628" stroke-width="2.13" stroke-linecap="round" stroke-linejoin="round"/>
<path fill-rule="evenodd" clip-rule="evenodd" d="M95.2463 256.828C96.8899 255.331 98.4934 253.753 99.9766 252.094C87.5096 244.487 87.3893 238.336 87.3893 238.336L60.932 279.57C73.84 284.506 89.4337 288.391 106.471 290.657C103.705 283.373 99.4555 276.454 94.0437 270.586C90.8368 266.54 92.0394 260.066 95.2463 256.828Z" fill="#FAF6EB"/>
<path fill-rule="evenodd" clip-rule="evenodd" d="M111.802 258.002C106.952 255.979 103.103 253.996 99.9765 252.094C98.5334 253.753 96.9299 255.331 95.2463 256.828C92.0393 260.066 90.8367 266.54 94.0437 270.586C99.4955 276.454 103.745 283.373 106.471 290.657C109.237 291.021 112.043 291.345 114.889 291.628C124.87 292.599 134.571 292.963 143.751 292.721C143.791 292.721 143.872 292.721 143.912 292.721L155.176 260.875C155.176 260.915 140.705 270.06 111.802 258.002Z" fill="#FB564C"/>
<path fill-rule="evenodd" clip-rule="evenodd" d="M160.508 170.76C161.63 167.725 160.027 162.951 159.145 159.916C154.214 143.244 140.264 134.868 126.274 126.694C121.423 123.862 118.697 123.376 114.328 131.388C112.003 135.637 110.479 146.077 113.646 148.99C123.067 157.528 134.732 164.246 141.146 175.009C142.108 176.628 146.998 191.195 146.998 191.195C146.998 191.195 150.125 187.513 153.974 184.154C157.18 181.322 158.102 181.119 158.583 180.431L160.508 170.76Z" fill="#F7AA9A"/>
<path d="M203.36 107.555C202.198 106.948 201.717 105.532 202.318 104.318L202.398 104.196C203 103.023 204.403 102.537 205.605 103.144C206.768 103.751 207.249 105.167 206.648 106.381L206.567 106.503C205.926 107.717 204.523 108.162 203.36 107.555ZM205.124 104.115C204.483 103.792 203.721 104.034 203.36 104.682L203.28 104.803C202.96 105.451 203.2 106.219 203.842 106.584C204.483 106.907 205.245 106.665 205.605 106.017L205.686 105.896C206.006 105.208 205.766 104.439 205.124 104.115Z" fill="#1C2628" stroke="#1C2628" stroke-width="2.13" stroke-linecap="round" stroke-linejoin="round"/>
<path d="M200.835 112.532C199.673 111.925 199.192 110.509 199.793 109.295L199.873 109.173C200.474 108 201.877 107.514 203.08 108.121C204.283 108.728 204.724 110.144 204.122 111.358L204.042 111.48C203.401 112.694 201.998 113.139 200.835 112.532ZM202.559 109.092C201.917 108.769 201.156 109.011 200.795 109.659L200.715 109.78C200.394 110.428 200.635 111.197 201.276 111.561C201.917 111.925 202.679 111.642 203.04 110.994L203.12 110.873C203.481 110.185 203.24 109.416 202.559 109.092Z" fill="#1C2628" stroke="#1C2628" stroke-width="2.13" stroke-linecap="round" stroke-linejoin="round"/>
<path d="M205.204 101.485C203.481 100.595 202.839 98.4502 203.681 96.7507L206.608 91.0452C207.489 89.3052 209.574 88.6578 211.298 89.5075C213.021 90.3978 213.663 92.5424 212.821 94.2419L209.895 99.9474C209.013 101.687 206.888 102.375 205.204 101.485ZM210.817 90.4787C209.614 89.8717 208.171 90.3168 207.57 91.5308L204.643 97.2363C204.042 98.4502 204.483 99.9069 205.686 100.514C206.888 101.121 208.331 100.676 208.933 99.4618L211.859 93.7563C212.46 92.5424 212.019 91.0857 210.817 90.4787Z" fill="#1C2628" stroke="#1C2628" stroke-width="2.13" stroke-linecap="round" stroke-linejoin="round"/>
<path fill-rule="evenodd" clip-rule="evenodd" d="M225.368 67.5353L165.559 184.761C163.755 188.322 159.425 189.698 155.898 187.877L103.584 160.685C100.057 158.864 98.6938 154.494 100.498 150.933L134.411 84.4091C135.614 84.3281 136.816 84.2472 138.059 84.1663L103.424 152.106C102.382 154.17 103.184 156.719 105.228 157.812L157.14 184.761C157.742 185.085 158.383 185.247 159.065 185.247C160.628 185.247 162.071 184.357 162.793 182.94L222.362 66.1595C222.562 65.7549 222.682 65.3503 222.763 64.9456C222.803 64.9456 222.843 64.9051 222.883 64.9051C224.005 64.4196 225.088 63.8935 226.17 63.408C226.29 64.7433 226.05 66.2 225.368 67.5353Z" fill="#1C2628" stroke="#1C2628" stroke-width="2.13" stroke-linecap="round" stroke-linejoin="round"/>
<path fill-rule="evenodd" clip-rule="evenodd" d="M222.722 64.9456C222.642 65.3502 222.522 65.7548 222.322 66.1595L162.793 182.94C162.071 184.356 160.628 185.247 159.065 185.247C158.383 185.247 157.742 185.085 157.14 184.761L105.228 157.812C103.184 156.76 102.382 154.21 103.424 152.106L138.059 84.2067C146.117 83.6402 154.896 82.6286 164.075 81.1314C187.085 77.3277 208.051 71.3794 222.722 64.9456Z" fill="#FAF6EB"/>
<path fill-rule="evenodd" clip-rule="evenodd" d="M189.49 41.4357C189.49 41.4357 188.368 43.6612 188.288 45.5226C188.288 45.644 188.288 45.7249 188.288 45.8463C188.328 47.5458 189.37 49.043 190.853 49.8118L194.702 51.7946C195.784 52.3611 197.027 52.4825 198.149 52.1183C198.63 51.9565 199.111 51.7541 199.552 51.4709C201.116 50.4188 202.158 48.2337 202.158 48.2337L189.49 41.4357Z" fill="#1C2628" stroke="#1C2628" stroke-width="2.13" stroke-linecap="round" stroke-linejoin="round"/>
<path fill-rule="evenodd" clip-rule="evenodd" d="M193.018 164.772C193.419 166.957 189.17 186.38 183.718 198.398L123.708 209.89C123.708 209.89 125.271 203.941 128.518 197.346C131.405 191.478 135.574 185.125 141.146 181.969C157.581 172.662 170.129 177.073 170.129 177.073C170.129 177.073 170.93 169.87 176.021 160.725C176.021 160.725 176.061 159.187 176.302 156.881C176.783 152.268 178.066 144.742 181.473 141.302C188.769 133.938 194.541 135.394 194.141 136.527C194.461 138.065 193.379 163.679 193.018 164.772Z" fill="#F45B49" stroke="#1C2628" stroke-width="2.13" stroke-linecap="round" stroke-linejoin="round"/>
<path fill-rule="evenodd" clip-rule="evenodd" d="M100.017 127.423C94.9256 128.515 92.8812 133.128 95.3666 138.025C96.048 139.36 100.137 145.349 103.825 144.661C105.549 144.337 111.161 145.106 110.078 131.631C109.357 126.371 106.791 126.007 100.017 127.423Z" fill="#F45B49" stroke="#1C2628" stroke-width="2.13" stroke-linecap="round" stroke-linejoin="round"/>
<path d="M143.751 292.761C134.612 292.963 124.911 292.64 114.889 291.668C94.5248 289.686 75.9245 285.356 60.932 279.61" stroke="#1C2628" stroke-width="2.13" stroke-linecap="round" stroke-linejoin="round"/>
<path d="M88.3113 241.169C88.3113 241.169 90.1152 247.036 99.9765 252.094C109.838 257.152 120.06 263.991 134.451 263.991" stroke="#1C2628" stroke-width="2.13" stroke-linecap="round" stroke-linejoin="round"/>
<path d="M188.649 137.903C188.649 137.903 187.165 147.048 188.649 148.505C190.132 150.002 192.296 150.002 192.296 150.002" stroke="#1C2628" stroke-width="2.13" stroke-linecap="round" stroke-linejoin="round"/>
<path fill-rule="evenodd" clip-rule="evenodd" d="M170.569 184.033C164.637 186.865 161.63 182.131 153.973 184.154C144.553 186.703 143.751 195.363 135.654 197.427C133.77 197.912 131.405 198.074 128.478 197.346C131.365 191.478 135.534 185.125 141.106 181.969C157.541 172.662 170.088 177.073 170.088 177.073C170.088 177.073 170.89 169.87 175.981 160.725C175.981 160.725 176.021 159.188 176.262 156.881C178.026 159.43 179.268 162.344 179.629 165.5C180.391 172.662 176.703 181.079 170.569 184.033Z" fill="#FAF6EB"/>
<path fill-rule="evenodd" clip-rule="evenodd" d="M118.457 214.786C117.935 211.549 124.951 207.866 130.843 204.791C143.872 197.993 157.942 195.565 159.866 195.241C167.844 193.947 173.135 194.028 178.026 189.496C180.992 186.784 184.399 181.645 185.442 182.01C187.125 182.617 186.003 193.582 182.756 200.542C175.3 216.607 151.368 219.399 147.038 219.925C134.531 221.503 119.178 219.358 118.457 214.786Z" fill="#FB564C"/>
<path d="M215.707 121.677L203.601 129.81" stroke="#1C2628" stroke-width="2.13" stroke-linecap="round" stroke-linejoin="round"/>
<path d="M216.429 134.383L203.842 135.839" stroke="#1C2628" stroke-width="2.13" stroke-linecap="round" stroke-linejoin="round"/>
<path d="M202.879 142.071L214.505 154.777" stroke="#1C2628" stroke-width="2.13" stroke-linecap="round" stroke-linejoin="round"/>
<path d="M203.36 155.02L209.053 161.98" stroke="#1C2628" stroke-width="2.13" stroke-linecap="round" stroke-linejoin="round"/>
<path d="M88.7121 261.158C87.269 264.557 86.3069 268.442 87.5496 271.881C88.4716 274.512 90.5561 276.535 92.3199 278.72C94.0838 280.905 95.6071 283.576 95.1661 286.368" stroke="#1C2628" stroke-width="2.13" stroke-linecap="round" stroke-linejoin="round"/>
<path d="M95.0459 276.939C96.2084 279.367 98.6938 280.905 99.7761 283.333C100.297 284.506 100.458 285.842 100.458 287.136" stroke="#1C2628" stroke-width="2.13" stroke-linecap="round" stroke-linejoin="round"/>
<path d="M107.753 232.469C107.753 234.33 107.753 236.232 107.433 238.093C107.112 239.955 106.431 241.776 105.188 243.152C103.865 244.649 102.021 245.579 100.257 246.47" stroke="#1C2628" stroke-width="2.13" stroke-linecap="round" stroke-linejoin="round"/>
<path d="M109.196 241.695C108.675 243.313 107.593 244.77 106.19 245.741" stroke="#1C2628" stroke-width="2.13" stroke-linecap="round" stroke-linejoin="round"/>
<path d="M98.6938 138.47C98.4934 136.689 98.2929 134.828 98.9744 133.209C99.6559 131.591 101.58 130.296 103.224 131.024" stroke="#1C2628" stroke-width="2.13" stroke-linecap="round" stroke-linejoin="round"/>
<path d="M177.865 193.016C169.407 207.219 161.39 221.746 153.853 236.475" stroke="#1C2628" stroke-width="2.13" stroke-linecap="round" stroke-linejoin="round"/>
<path d="M166.641 221.543L150.606 252.661" stroke="#1C2628" stroke-width="2.13" stroke-linecap="round" stroke-linejoin="round"/>
<path d="M186.604 172.784C184.079 183.669 184.76 191.235 175.26 206.329" stroke="#1C2628" stroke-width="2.13" stroke-linecap="round" stroke-linejoin="round"/>
<path fill-rule="evenodd" clip-rule="evenodd" d="M243.928 48.436C243.327 53.0894 236.753 58.3094 226.13 63.3674C225.088 63.853 223.965 64.3791 222.843 64.8646C222.803 64.8646 222.763 64.9051 222.722 64.9051C208.051 71.3389 187.045 77.3277 164.075 81.0909C154.896 82.5881 146.116 83.5997 138.059 84.1662C136.816 84.2471 135.614 84.3281 134.411 84.409C124.67 84.935 116.051 84.8136 108.996 84.0044C96.2084 82.5881 88.7122 79.0272 89.3936 73.6454C90.0751 68.3041 98.7739 62.113 112.403 56.3671C123.828 51.5518 138.7 47.0198 155.256 43.5803C156.579 43.297 157.862 43.0542 159.185 42.771C162.472 42.1235 165.839 41.5166 169.247 40.9501C172.935 40.3431 176.542 39.8171 180.03 39.372C181.954 39.1292 183.838 38.9268 185.682 38.7245C198.47 37.3487 209.935 36.9846 219.275 37.5915C235.109 38.6436 244.69 42.4068 243.928 48.436Z" fill="#1C2628" stroke="#1C2628" stroke-width="2.13" stroke-linecap="round" stroke-linejoin="round"/>
<path d="M137.498 76.1138C136.295 76.1947 135.133 76.2756 133.97 76.3161C130.282 76.5184 126.714 76.6398 123.387 76.6398C118.416 76.6398 113.887 76.397 109.878 75.9519" stroke="#FAF6EB" stroke-width="2.13" stroke-linecap="round" stroke-linejoin="round"/>
<path d="M222.682 56.0839C221.68 56.5694 220.678 57.0145 219.636 57.5001L219.435 57.581" stroke="#FAF6EB" stroke-width="2.13" stroke-linecap="round" stroke-linejoin="round"/>
<path d="M115.49 63.8531C126.634 59.1592 141.306 54.789 156.86 51.5114C158.142 51.2686 159.385 50.9854 160.708 50.7426C163.915 50.1356 167.202 49.5286 170.529 48.9621C174.057 48.3956 177.585 47.8696 181.072 47.4245C182.836 47.1817 184.56 46.9794 186.203 46.8175L186.604 46.777C195.022 45.8868 202.879 45.4012 210.055 45.4012C213.142 45.4012 216.108 45.4822 218.834 45.644" stroke="#FAF6EB" stroke-width="2.13" stroke-linecap="round" stroke-linejoin="round"/>
<path d="M234.949 30.6721C255.473 32.0074 267.94 36.8632 266.898 44.6729C266.136 50.7021 257.558 57.5001 243.808 64.0554C242.445 64.7028 241.002 65.3502 239.559 65.9977C239.519 66.0381 239.479 66.0381 239.439 66.0381" stroke="#1C2628" stroke-width="2.13" stroke-linecap="round" stroke-linejoin="round"/>
<path d="M91.879 90.8833C75.283 89.022 65.5419 84.409 66.4238 77.4491C67.3057 70.4892 78.6102 62.4772 96.2484 55.0318C111.081 48.7598 130.402 42.9329 151.849 38.4413C153.533 38.0771 155.256 37.7534 156.94 37.3892C161.229 36.5395 165.599 35.7706 170.008 35.0423C174.779 34.2734 179.469 33.5855 184.039 33.019" stroke="#1C2628" stroke-width="2.13" stroke-linecap="round" stroke-linejoin="round"/>
<path d="M211.298 306.6C188.809 312.629 166.2 320.682 142.95 319.265" stroke="#1C2628" stroke-width="2.13" stroke-linecap="round" stroke-linejoin="round"/>
<path d="M154.054 99.9474C157.662 92.9875 166.2 90.3169 173.055 93.9991" stroke="#1C2628" stroke-width="2.13" stroke-linecap="round" stroke-linejoin="round"/>
<path d="M157.501 101.768C160.107 96.7507 166.28 94.8084 171.251 97.4791" stroke="#1C2628" stroke-width="2.13" stroke-linecap="round" stroke-linejoin="round"/>
<path d="M166.521 109.133C167.915 109.133 169.046 107.991 169.046 106.584C169.046 105.176 167.915 104.034 166.521 104.034C165.126 104.034 163.995 105.176 163.995 106.584C163.995 107.991 165.126 109.133 166.521 109.133Z" stroke="#1C2628" stroke-width="2.13" stroke-linecap="round" stroke-linejoin="round"/>
<path d="M167.643 120.18L162.592 129.891" stroke="#1C2628" stroke-width="2.13" stroke-linecap="round" stroke-linejoin="round"/>
<path d="M167.643 120.18C166.841 119.775 166.561 118.763 166.962 117.995L167.804 116.417C168.204 115.607 169.207 115.324 169.968 115.729C170.77 116.133 171.051 117.145 170.65 117.914L169.808 119.492C169.407 120.301 168.405 120.584 167.643 120.18Z" stroke="#1C2628" stroke-width="2.13" stroke-linecap="round" stroke-linejoin="round"/>
<path d="M134.892 130.296L163.474 144.985" stroke="#1C2628" stroke-width="2.13" stroke-linecap="round" stroke-linejoin="round"/>
<path d="M146.718 144.701L164.396 153.846" stroke="#1C2628" stroke-width="2.13" stroke-linecap="round" stroke-linejoin="round"/>
<path d="M127.155 134.625L146.718 144.701" stroke="black" stroke-width="6" stroke-linecap="round" stroke-linejoin="round"/>
<path d="M51.9926 195.403C50.1487 194.715 48.1443 194.756 46.5008 195.363C45.5387 195.687 44.6968 196.172 44.0154 196.739C43.8951 196.294 43.8149 195.848 43.6947 195.403C43.4942 194.554 43.2938 193.663 43.1335 192.773C43.8951 191.964 44.5766 191.074 45.1779 190.102C46.7012 187.877 47.7434 185.206 47.8637 182.455C47.9439 179.744 47.9038 176.951 46.8615 174.605C46.621 173.998 46.3404 173.593 45.8594 172.784C45.699 172.5 45.3783 171.934 44.9775 171.529C44.5766 171.084 43.855 170.801 43.1335 170.922C41.6903 171.246 41.089 172.177 40.6882 172.865C40.4877 173.229 40.3675 173.552 40.2472 173.957C40.167 174.159 40.1269 174.281 40.0869 174.443L40.0468 174.564C40.0067 174.685 40.0067 174.685 40.0067 174.726L39.9666 174.969C39.686 176.385 39.8463 177.68 40.0067 178.894C40.167 180.108 40.3274 181.281 40.4476 182.455C40.608 184.316 40.8886 186.137 41.2494 187.958C40.6882 188.767 40.0869 189.576 39.4455 190.305L38.2429 191.681C37.842 192.126 37.4411 192.652 37.0002 193.178C35.3566 195.282 34.0738 197.669 33.3924 200.34C32.6708 202.97 32.9514 206.086 34.4346 208.433C35.8777 210.82 38.2028 212.317 40.5278 213.046C42.8128 213.734 45.1378 213.896 47.3426 213.572C47.6232 214.705 47.9038 215.838 48.1443 216.89C49.0262 219.682 48.2245 222.312 46.5408 223.283C45.2981 223.971 44.0154 223.728 43.1735 223.283C43.2537 223.283 43.3339 223.283 43.4542 223.283C44.777 223.243 45.7792 222.11 45.699 220.775C45.6589 219.439 44.5365 218.428 43.2136 218.509C41.8908 218.549 40.8886 219.682 40.9688 221.017C40.9688 221.139 41.0089 221.22 41.0089 221.341C41.089 221.827 41.3296 222.272 41.6502 222.595C41.7304 222.717 41.8106 222.798 41.9309 222.919C42.3718 223.364 42.9731 223.809 43.8149 224.052C44.6568 224.295 45.699 224.335 46.8214 223.89C47.9038 223.445 48.906 222.393 49.3068 221.017C49.5073 220.329 49.6275 219.601 49.5474 218.832C49.4672 218.023 49.3068 217.335 49.1465 216.607C48.906 215.555 48.6254 214.462 48.3447 213.329C50.309 212.924 52.1129 212.115 53.7164 211.023C55.4802 209.687 56.8031 207.745 57.2039 205.6C57.6449 203.456 57.244 201.23 56.322 199.409C55.4802 197.588 53.8767 196.091 51.9926 195.403ZM42.0912 177.154C42.3718 176.183 42.8529 173.512 44.3361 173.876C45.2581 174.119 45.4986 175.373 45.5387 176.183C45.6589 178.084 45.2981 180.067 44.4964 181.807C43.7348 183.507 42.933 185.085 42.011 186.663C41.8106 185.247 41.6502 183.83 41.53 182.374C41.4498 180.634 41.6502 178.853 42.0912 177.154ZM41.2494 211.184C39.3252 210.335 37.6015 208.959 36.7196 207.138C35.8377 205.358 35.8377 203.253 36.5592 201.271C37.2808 199.288 38.6437 197.467 40.1269 195.848C40.4877 195.444 40.8485 195.039 41.3296 194.594L41.9709 193.987C42.1313 193.825 42.2515 193.704 42.4119 193.542C42.5722 194.23 42.7326 194.918 42.8529 195.606C42.9731 196.213 43.1335 196.779 43.2537 197.386C41.9309 198.721 41.1692 200.34 40.9287 201.756C40.5278 204.144 41.1692 205.965 41.6903 207.017C41.9309 207.543 42.2115 207.947 42.3718 208.19C42.5322 208.433 42.6524 208.554 42.6524 208.554C42.6524 208.554 42.452 207.947 42.2515 206.814C42.0912 205.722 41.9309 204.022 42.6123 202.201C42.8929 201.473 43.2938 200.704 43.8951 200.016C44.4964 202.485 45.0977 204.912 45.699 207.138C46.14 208.878 46.5809 210.577 47.0219 212.156C45.0576 212.317 43.0132 211.994 41.2494 211.184ZM56.0013 205.439C55.8811 207.259 54.8388 209.04 53.1953 210.173C51.7521 211.184 49.9883 211.832 48.1042 212.075C47.6633 210.416 47.1822 208.716 46.6611 206.895C45.9796 204.508 45.2981 201.959 44.6167 199.288C45.3382 198.64 46.2201 198.114 47.2624 197.831C49.6275 197.184 52.594 197.953 54.5181 200.583C55.4802 201.918 56.1216 203.658 56.0013 205.439Z" fill="#1C2628" stroke="#1C2628" stroke-width="2.13" stroke-linecap="round" stroke-linejoin="round"/>
</svg>
